<svg xmlns="http://www.w3.org/2000/svg" xmlns:xlink="http://www.w3.org/1999/xlink" width="2000" zoomAndPan="magnify" viewBox="0 0 1500 1499.999933" height="2000" preserveAspectRatio="xMidYMid meet" version="1.0"><defs><g/><clipPath id="593181231a"><path d="M 620 250 L 984 250 L 984 849.835938 L 620 849.835938 Z M 620 250 " clip-rule="nonzero"/></clipPath><clipPath id="57fecc3f34"><rect x="0" width="219" y="0" height="221"/></clipPath></defs><rect x="-150" width="1800" fill="#ffffff" y="-149.999993" height="1799.99992" fill-opacity="1"/><rect x="-150" width="1800" fill="#f9f5f2" y="-149.999993" height="1799.99992" fill-opacity="1"/><g clip-path="url(#593181231a)"><path fill="#82120d" d="M 912.339844 502.941406 C 911.648438 504.328125 911.1875 505.621094 911.003906 507.003906 C 910.496094 510.464844 910.171875 513.972656 909.433594 517.390625 C 907.632812 525.417969 906.25 533.542969 904.539062 541.574219 C 903.847656 544.851562 903.847656 548.171875 903.847656 551.496094 C 903.847656 558.144531 904.496094 564.789062 905.1875 571.390625 C 905.417969 573.652344 906.015625 575.867188 906.203125 578.128906 C 906.480469 581.035156 906.570312 583.941406 906.570312 586.898438 C 906.570312 591.558594 907.03125 596.21875 906.847656 600.882812 C 906.664062 605.679688 906.433594 610.433594 905.695312 615.1875 C 905.511719 616.390625 905.371094 617.636719 905.324219 618.835938 C 905.1875 624.1875 904.585938 629.542969 904.03125 634.898438 C 903.523438 639.742188 902.601562 644.449219 900.847656 649.019531 C 897.941406 656.542969 895.21875 664.113281 892.496094 671.679688 C 891.800781 673.664062 891.292969 675.695312 890.601562 677.679688 C 888.480469 684.050781 886.355469 690.417969 884.1875 696.789062 C 883.957031 697.433594 883.726562 698.128906 883.726562 698.820312 C 883.816406 702.28125 882.894531 705.652344 882.523438 709.066406 C 881.648438 716.40625 879.523438 723.464844 876.988281 730.390625 C 874.402344 737.40625 871.863281 744.417969 869.003906 751.34375 C 867.339844 755.449219 865.863281 759.652344 864.0625 763.710938 C 862.910156 766.296875 861.570312 768.742188 859.726562 770.867188 C 858.617188 772.160156 857.601562 773.496094 856.769531 774.972656 C 854.511719 779.035156 850.863281 780.972656 846.386719 781.527344 C 844.171875 781.804688 842.046875 782.40625 839.785156 782.3125 C 836.417969 782.171875 837.019531 782.636719 833.277344 780.652344 C 832.726562 781.433594 832.496094 782.3125 832.171875 783.1875 C 831.570312 784.664062 831.0625 786.144531 830.511719 787.621094 C 829.355469 790.757812 827.695312 793.480469 825.109375 795.652344 C 823.957031 796.621094 823.03125 797.820312 822.15625 799.066406 C 821.371094 800.171875 820.585938 801.28125 819.800781 802.34375 C 818.003906 804.652344 815.878906 806.449219 813.15625 807.652344 C 811.496094 808.390625 809.878906 809.21875 808.265625 810.050781 C 805.265625 811.574219 802.125 812.171875 798.757812 811.898438 C 797.601562 811.804688 796.449219 811.574219 795.386719 811.113281 C 792.480469 809.867188 790.863281 807.742188 790.863281 804.464844 C 790.863281 801.972656 790.863281 799.433594 790.863281 796.851562 C 788.554688 795.742188 786.386719 794.40625 784.355469 792.882812 C 783.988281 793.527344 784.125 794.082031 784.125 794.589844 C 784.125 798.511719 783.894531 802.390625 783.203125 806.265625 C 782.695312 809.128906 782.648438 812.082031 782.140625 814.941406 C 781.308594 819.464844 780.339844 823.988281 779.140625 828.464844 C 777.800781 833.496094 775.539062 838.203125 772.957031 842.726562 C 771.941406 844.433594 770.511719 845.636719 768.664062 846.464844 C 766.21875 847.621094 763.632812 848.359375 761.046875 849.050781 C 759.941406 849.328125 758.878906 849.328125 757.769531 848.910156 C 754.125 847.574219 751.21875 845.3125 749.1875 842.035156 C 747.800781 839.820312 747.292969 837.28125 747.109375 834.695312 C 746.554688 827.3125 746.09375 819.925781 745.402344 812.542969 C 745.03125 808.851562 744.988281 805.066406 745.496094 801.375 C 745.496094 801.328125 745.496094 801.234375 745.496094 801.1875 C 745.632812 798.234375 745.449219 795.234375 746.417969 792.144531 C 744.757812 791.867188 743.511719 790.988281 742.21875 790.25 C 740.742188 789.417969 739.265625 788.589844 738.0625 787.390625 C 737.371094 786.742188 736.496094 786.375 735.570312 786.144531 C 734.003906 785.679688 732.710938 784.851562 731.554688 783.742188 C 730.308594 782.496094 728.832031 781.574219 727.265625 780.789062 C 724.957031 779.636719 722.878906 778.113281 720.710938 776.726562 C 719.046875 775.664062 717.894531 774.234375 716.601562 772.851562 C 712.863281 768.789062 711.433594 763.804688 709.910156 758.773438 C 709.402344 757.160156 708.941406 755.542969 708.339844 753.558594 C 708.109375 754.527344 708.203125 755.171875 708.339844 755.726562 C 709.308594 761.40625 709.769531 767.171875 710.648438 772.898438 C 710.785156 773.773438 711.0625 774.558594 711.617188 775.296875 C 712.910156 776.957031 714.109375 778.664062 715.355469 780.375 C 717.570312 783.375 719.046875 786.742188 720.617188 790.019531 C 724.078125 797.3125 726.617188 804.972656 729.664062 812.40625 C 731.878906 817.804688 733.769531 823.296875 736.21875 828.605469 C 737.695312 831.789062 738.339844 835.15625 737.648438 838.664062 C 737.601562 838.941406 737.554688 839.265625 737.511719 839.542969 C 737.046875 841.574219 735.757812 843.28125 735.019531 845.265625 C 734.554688 846.464844 733.21875 847.113281 732.203125 847.804688 C 729.523438 849.605469 726.570312 850.296875 723.386719 849.742188 C 722.648438 849.605469 721.957031 849.28125 721.308594 848.867188 C 719.140625 847.433594 717.292969 845.726562 716.140625 843.328125 C 714.25 839.359375 711.203125 836.265625 708.386719 832.988281 C 706.265625 830.542969 704.371094 828.003906 702.894531 825.097656 C 702.570312 824.449219 702.25 823.710938 701.511719 823.25 C 701.003906 823.574219 700.910156 824.171875 700.679688 824.679688 C 699.386719 827.542969 695.464844 829.160156 692.554688 827.867188 C 690.339844 826.898438 688.402344 825.511719 686.878906 823.621094 C 681.710938 817.203125 676.816406 810.605469 671.648438 804.1875 C 668.648438 800.496094 665.832031 796.621094 662.554688 793.066406 C 660.523438 790.851562 659.046875 788.128906 657.203125 785.726562 C 654.710938 782.542969 652.539062 779.171875 650.785156 775.527344 C 649.816406 773.589844 649.265625 771.511719 648.710938 769.433594 C 647.277344 764.082031 647.09375 758.589844 646.402344 753.1875 C 645.757812 748.34375 645.109375 743.449219 644.742188 738.558594 C 644.511719 735.050781 644.234375 731.589844 643.863281 728.082031 C 643.402344 723.925781 642.988281 719.726562 642.25 715.574219 C 641.878906 713.40625 641.324219 711.234375 640.265625 709.25 C 637.355469 703.898438 636.25 698.128906 635.417969 692.171875 C 634.632812 686.359375 634.910156 680.636719 635.601562 674.914062 C 636.433594 668.171875 636.800781 661.433594 637.355469 654.695312 C 637.957031 647.265625 638.140625 639.789062 639.15625 632.359375 C 639.894531 627.234375 640.265625 622.019531 640.726562 616.851562 C 641.234375 611.496094 641.511719 606.144531 641.695312 600.789062 C 641.878906 594.605469 642.339844 588.417969 642.339844 582.234375 C 642.339844 573.882812 641.925781 565.527344 641.1875 557.21875 C 640.910156 554.265625 640.679688 551.265625 640.679688 548.3125 C 640.679688 546.652344 640.496094 545.035156 640.078125 543.464844 C 639.523438 541.25 639.523438 538.941406 639.433594 536.679688 C 639.292969 534.050781 639.0625 531.417969 638.742188 528.835938 C 638.511719 527.128906 638.511719 525.464844 638.695312 523.757812 C 639.109375 519.417969 638.878906 514.988281 639.757812 510.695312 C 641.046875 504.417969 641.925781 498.050781 642.988281 491.726562 C 643.078125 491.265625 643.265625 490.804688 642.988281 490.296875 C 642.25 489.925781 641.417969 490.160156 640.632812 490.113281 C 637.769531 490.019531 635.417969 488.914062 633.757812 486.558594 C 632.417969 484.667969 631.308594 482.589844 629.554688 480.972656 C 628.769531 480.234375 627.941406 479.636719 626.878906 479.449219 C 626.140625 479.3125 625.402344 479.082031 624.664062 478.898438 C 622.355469 478.433594 621.15625 476.957031 620.695312 474.742188 C 619.910156 470.914062 619.910156 467.128906 620.925781 463.296875 C 622.21875 458.3125 624.433594 453.789062 626.878906 449.3125 C 630.292969 443.082031 633.664062 436.804688 637.402344 430.710938 C 641.695312 423.742188 644.832031 416.3125 647.324219 408.558594 C 648.019531 406.34375 648.433594 403.988281 650.003906 402.144531 C 650.1875 401.914062 650.1875 401.496094 650.234375 401.128906 C 650.554688 398.726562 650.464844 396.328125 650.464844 393.972656 C 650.464844 393.28125 650.1875 392.773438 649.632812 392.359375 C 646.816406 390.234375 644.648438 387.511719 642.523438 384.695312 C 640.265625 381.742188 638.972656 378.464844 638.511719 374.773438 C 637.910156 369.558594 637.078125 364.34375 636.386719 359.171875 C 636.292969 358.574219 636.25 358.019531 636.25 357.417969 C 636.25 352.160156 635.972656 346.898438 636.570312 341.679688 C 636.847656 339.144531 637.21875 336.605469 637.402344 334.019531 C 637.726562 330.050781 637.402344 326.082031 636.800781 322.160156 C 636.292969 318.882812 635.785156 315.558594 635.878906 312.234375 C 635.878906 311.359375 635.742188 310.480469 635.695312 309.558594 C 636.339844 310.433594 636.570312 311.40625 636.894531 312.328125 C 638.554688 317.035156 639.433594 321.925781 640.125 326.820312 C 640.816406 331.480469 640.171875 336.144531 639.664062 340.804688 C 638.785156 348.375 638.695312 355.941406 639.894531 363.511719 C 640.539062 367.667969 641.1875 371.820312 641.832031 375.972656 C 642.15625 378.144531 642.988281 380.128906 644.277344 381.925781 C 645.988281 384.375 647.742188 386.773438 649.910156 388.851562 C 650.417969 389.359375 650.925781 389.820312 651.710938 389.636719 C 652.03125 389.542969 652.402344 389.636719 652.726562 389.820312 C 654.109375 390.558594 655.632812 390.695312 657.109375 390.882812 C 663.570312 391.757812 670.125 391.988281 676.632812 392.773438 C 681.710938 393.375 686.695312 392.773438 691.496094 391.160156 C 697.355469 389.21875 703.402344 387.835938 709.308594 385.988281 C 711.941406 385.160156 714.664062 384.789062 717.386719 384.511719 C 718.632812 384.375 719.832031 384.558594 721.03125 384.835938 C 724.21875 385.527344 727.496094 385.851562 730.769531 386.082031 C 732.15625 386.171875 733.539062 386.359375 734.925781 386.679688 C 737.925781 387.375 740.925781 387.417969 743.972656 387.097656 C 744.570312 387.050781 745.125 386.914062 745.726562 386.914062 C 748.957031 387.003906 752.140625 386.589844 755.234375 385.667969 C 756.386719 385.34375 757.539062 385.390625 758.695312 385.667969 C 760.171875 386.035156 761.695312 386.21875 763.21875 386.21875 C 763.726562 386.21875 764.417969 386.3125 764.742188 385.941406 C 765.710938 384.789062 767.1875 384.695312 768.386719 384.003906 C 769.585938 383.3125 770.832031 382.574219 771.988281 381.789062 C 776.046875 379.019531 778.816406 375.328125 780.292969 370.667969 C 782.046875 365.21875 783.203125 359.589844 784.496094 354.050781 C 785.046875 351.652344 785.648438 349.296875 785.832031 346.851562 C 786.15625 342.882812 785.695312 339.003906 784.21875 335.3125 C 782.785156 331.621094 782.832031 327.972656 783.617188 324.144531 C 785.09375 317.21875 786.847656 310.390625 789.570312 303.835938 C 792.015625 297.925781 793.449219 291.742188 794.648438 285.464844 C 794.832031 284.589844 795.203125 283.804688 795.292969 282.925781 L 795.292969 287.40625 C 795.847656 287.171875 795.941406 286.804688 796.078125 286.480469 C 797.554688 283.203125 798.617188 279.835938 798.710938 276.1875 C 798.894531 269.082031 799.910156 262.019531 800.277344 254.914062 C 800.371094 253.296875 800.648438 251.679688 800.742188 250.019531 C 801.292969 251.171875 801.523438 252.375 801.664062 253.621094 C 801.847656 255.421875 801.800781 257.21875 801.664062 259.066406 C 801.339844 265.25 800.972656 271.433594 800.695312 277.621094 C 800.554688 280.527344 799.769531 283.25 798.570312 285.882812 C 795.203125 293.3125 792.941406 301.113281 790.449219 308.820312 C 788.785156 313.988281 787.21875 319.160156 786.0625 324.511719 C 785.832031 325.574219 785.417969 326.636719 785.742188 327.789062 C 784.632812 330.511719 786.109375 332.914062 786.941406 335.3125 C 788.925781 341.035156 789.203125 346.804688 787.679688 352.710938 C 786.15625 358.480469 785.1875 364.34375 783.386719 370.066406 C 783.25 370.574219 783.0625 371.082031 782.925781 371.589844 C 780.800781 379.203125 775.726562 384.1875 768.570312 387.050781 C 766.171875 388.019531 765.15625 389.265625 764.648438 391.851562 C 763.078125 400.203125 763.078125 408.558594 764.234375 416.957031 C 764.785156 421.160156 765.203125 425.40625 765.800781 429.652344 C 766.171875 432.464844 767.1875 435.097656 768.941406 437.359375 C 770.554688 439.480469 771.339844 441.882812 771.386719 444.511719 C 771.433594 446.914062 772.078125 449.128906 773.511719 451.066406 C 775.03125 453.144531 775.496094 455.496094 775.632812 457.988281 C 775.769531 460.941406 775.910156 463.941406 776.324219 466.898438 C 776.648438 469.34375 777.292969 471.695312 778.402344 473.914062 C 778.585938 474.28125 778.769531 474.652344 778.910156 475.019531 C 779.785156 477.097656 779.695312 477.925781 777.941406 479.3125 C 776.234375 480.695312 774.847656 482.3125 773.511719 483.972656 C 772.402344 485.359375 771.0625 486.511719 769.496094 487.34375 C 768.109375 488.082031 766.816406 489.003906 765.617188 490.019531 C 764.234375 491.265625 762.617188 492.003906 760.726562 492.1875 C 758.234375 492.421875 755.742188 492.742188 753.203125 492.695312 C 750.339844 492.652344 747.523438 493.113281 744.710938 493.710938 C 743.878906 493.898438 743.371094 494.21875 743.234375 495.144531 C 742.679688 499.941406 741.570312 504.652344 741.523438 509.542969 C 741.480469 516.742188 742.816406 523.574219 745.539062 530.21875 C 746.554688 532.667969 747.480469 535.113281 748.265625 537.605469 C 749.417969 541.25 751.265625 544.574219 752.742188 548.035156 C 752.785156 548.171875 752.925781 548.359375 753.203125 548.359375 C 753.292969 548.3125 753.480469 548.21875 753.523438 548.128906 C 755.09375 545.359375 757.265625 543.050781 758.925781 540.375 C 759.847656 538.941406 760.957031 537.695312 762.25 536.589844 C 765.15625 534.050781 767.601562 531.097656 770.324219 528.328125 C 771.617188 526.988281 772.863281 525.605469 774.109375 524.21875 C 776.417969 521.726562 778.355469 518.914062 779.972656 515.957031 C 784.402344 507.925781 788.511719 499.710938 791.371094 490.988281 C 792.480469 487.527344 793.726562 484.160156 794.972656 480.742188 C 796.265625 477.1875 797.234375 473.496094 798.480469 469.941406 C 798.570312 469.710938 798.570312 469.480469 798.570312 469.296875 C 798.203125 468.652344 797.554688 468.511719 797.003906 468.144531 C 794.648438 466.621094 794.003906 465.050781 794.742188 462.328125 C 795.339844 460.066406 796.171875 457.898438 797.140625 455.773438 C 799.308594 450.882812 800.878906 445.710938 802.910156 440.726562 C 803.324219 439.667969 803.324219 438.558594 803.464844 437.449219 C 803.785156 435.097656 804.339844 432.835938 805.769531 430.941406 C 807.109375 429.144531 807.757812 427.019531 808.632812 424.898438 C 808.539062 424.34375 808.03125 424.113281 807.617188 423.789062 C 805.308594 421.804688 804.15625 419.265625 804.203125 416.21875 C 804.203125 408.28125 805.265625 400.527344 807.570312 392.914062 C 810.523438 383.171875 813.523438 373.480469 816.710938 363.835938 C 819.386719 355.710938 821.511719 347.359375 823.863281 339.097656 C 826.03125 331.527344 828.664062 324.097656 831.941406 316.898438 C 832.957031 314.726562 834.015625 312.605469 835.679688 310.757812 C 835.125 312.652344 834.664062 314.542969 833.925781 316.34375 C 829.125 328.667969 825.757812 341.40625 822.15625 354.097656 C 820.21875 361.019531 817.957031 367.851562 815.832031 374.679688 C 812.972656 383.867188 810.203125 393.097656 808.539062 402.605469 C 807.800781 406.804688 807.570312 411.050781 807.433594 415.34375 C 807.339844 417.652344 807.988281 419.679688 809.648438 421.390625 C 810.988281 422.820312 812.648438 423.328125 814.449219 423.558594 C 823.539062 424.710938 832.679688 425.359375 841.769531 426.464844 C 853.585938 427.898438 865.449219 429.144531 876.894531 432.695312 C 880.171875 433.710938 883.496094 434.679688 886.726562 435.835938 C 893.371094 438.234375 900.203125 440.035156 906.941406 442.160156 C 909.847656 443.082031 912.710938 444.050781 915.480469 445.296875 C 917.742188 446.265625 920.046875 447.097656 922.402344 447.789062 C 925.308594 448.667969 928.171875 449.636719 930.988281 450.835938 C 931.957031 451.25 932.972656 451.574219 933.988281 451.804688 C 935.003906 452.035156 936.0625 452.171875 937.03125 451.480469 C 937.539062 451.113281 938.09375 451.113281 938.695312 451.113281 C 941.785156 451.296875 944.324219 449.820312 945.757812 447.328125 C 948.757812 442.019531 951.941406 436.757812 954.617188 431.21875 C 956.09375 428.171875 956.972656 424.851562 957.894531 421.621094 C 958.726562 418.621094 959.878906 415.757812 961.265625 412.988281 C 962.785156 409.941406 964.078125 406.851562 965.09375 403.621094 C 967.726562 395.40625 970.769531 387.28125 973.539062 379.113281 C 975.523438 373.203125 977.140625 367.160156 979.171875 361.25 C 980.511719 357.328125 982.21875 353.542969 983.878906 349.710938 C 983.464844 351.925781 983.140625 354.144531 982.585938 356.3125 C 979.496094 369.1875 976.21875 382.019531 971.511719 394.433594 C 970.539062 396.925781 969.710938 399.511719 968.925781 402.050781 C 967.449219 406.757812 965.742188 411.328125 963.480469 415.710938 C 962.417969 417.742188 961.679688 419.914062 961.125 422.128906 C 959.511719 428.496094 956.925781 434.496094 953.464844 440.082031 C 952.03125 442.34375 950.785156 444.742188 949.632812 447.144531 C 948.109375 450.328125 945.664062 452.40625 942.433594 453.652344 C 942.203125 453.742188 942.015625 453.835938 941.648438 453.972656 C 941.234375 455.726562 940.816406 457.527344 940.449219 459.328125 C 940.125 461.035156 939.710938 462.742188 939.0625 464.40625 C 937.078125 469.34375 935.878906 474.511719 934.863281 479.773438 C 934.261719 482.867188 933.480469 485.914062 932.371094 488.914062 C 930.570312 493.757812 927.570312 497.820312 923.878906 501.417969 C 923.511719 501.789062 923.046875 502.066406 922.726562 502.480469 C 921.433594 504.1875 919.679688 504.742188 917.648438 504.652344 C 915.757812 504.605469 913.957031 504.375 912.339844 503.082031 Z M 731.648438 844.851562 C 733.265625 843.234375 733.863281 841.160156 734.046875 839.035156 C 734.324219 835.664062 733.402344 832.574219 731.464844 829.757812 C 729.617188 827.082031 728.324219 824.171875 727.496094 821.035156 C 726.847656 818.542969 726.292969 816.050781 725.648438 813.558594 C 724.449219 808.710938 722.511719 804.144531 720.386719 799.664062 C 717.988281 794.542969 715.125 789.652344 712.496094 784.621094 C 711.757812 783.234375 710.925781 781.898438 709.726562 780.835938 C 708.386719 779.589844 707.695312 778.019531 707.464844 776.21875 C 707.046875 773.082031 707.046875 769.941406 706.355469 766.851562 C 705.988281 765.144531 705.847656 763.390625 705.664062 761.636719 C 705.019531 756.234375 704.648438 750.835938 703.355469 745.527344 C 703.125 744.558594 702.710938 743.820312 701.925781 743.265625 C 700.03125 741.882812 699.109375 739.898438 699.25 737.636719 C 699.386719 735.511719 698.972656 733.296875 700.078125 731.3125 C 700.308594 730.898438 699.988281 730.527344 699.847656 730.160156 C 698.925781 727.757812 698.1875 725.3125 697.03125 723.003906 C 696.523438 722.035156 696.203125 720.925781 695.878906 719.867188 C 695.648438 719.128906 695.554688 718.390625 696.109375 717.695312 C 697.585938 717.972656 698.09375 719.265625 698.695312 720.375 C 700.726562 724.113281 701.648438 728.21875 703.03125 732.1875 C 703.496094 733.480469 704.09375 733.988281 705.292969 734.128906 C 706.125 734.21875 706.910156 734.21875 707.742188 734.128906 C 708.710938 733.941406 709.679688 733.757812 710.695312 733.710938 C 711.800781 733.621094 712.910156 733.34375 713.878906 732.835938 C 716.140625 731.589844 718.632812 730.851562 721.03125 730.019531 C 726.480469 728.171875 726.710938 728.082031 730.355469 723.652344 C 730.863281 723.050781 731.417969 722.40625 731.554688 721.574219 C 730.078125 718.898438 729.617188 715.941406 729.15625 712.988281 C 728.925781 711.375 728.972656 709.710938 729.480469 708.144531 C 729.941406 706.804688 730.355469 705.375 732.0625 705.1875 C 733.816406 705.003906 734.742188 706.160156 735.433594 707.496094 C 736.355469 709.296875 737.554688 711.003906 738.664062 712.710938 C 741.847656 717.652344 744.433594 722.820312 746.371094 728.359375 C 748.125 733.34375 749.695312 738.417969 752.601562 742.988281 C 754.125 745.390625 755.417969 747.972656 757.449219 750.050781 C 758.511719 751.15625 759.339844 752.449219 760.125 753.742188 C 760.863281 754.941406 761.511719 756.1875 762.339844 757.296875 C 763.910156 759.511719 765.15625 761.867188 766.125 764.40625 C 766.632812 765.742188 767.234375 766.988281 768.109375 768.097656 C 769.355469 769.664062 770.324219 771.417969 771.109375 773.21875 C 772.585938 776.449219 774.710938 779.21875 776.972656 781.898438 C 777.15625 782.128906 777.339844 782.496094 777.847656 782.496094 C 777.617188 781.851562 777.386719 781.296875 777.203125 780.695312 C 776.832031 779.3125 777.203125 778.480469 778.449219 777.742188 C 778.863281 777.511719 779.277344 777.328125 779.742188 777.1875 C 782.09375 776.3125 784.449219 775.390625 786.617188 774.144531 C 787.125 773.867188 787.679688 773.636719 788.1875 773.402344 C 788.925781 773.082031 789.570312 773.265625 790.03125 773.910156 C 790.496094 774.558594 790.957031 775.25 791.417969 775.941406 C 792.433594 777.558594 793.496094 779.171875 794.511719 780.835938 C 794.878906 780.375 794.742188 779.957031 794.648438 779.589844 C 793.957031 777.050781 793.449219 774.464844 792.433594 772.019531 C 791.511719 769.898438 790.816406 767.773438 790.402344 765.511719 C 789.800781 762.1875 788.648438 758.957031 787.769531 755.679688 C 787.585938 754.988281 787.308594 754.34375 786.941406 753.742188 C 783.894531 748.527344 781.632812 742.941406 778.679688 737.726562 C 778.078125 736.664062 777.523438 735.558594 776.601562 734.726562 C 775.539062 733.710938 774.617188 732.558594 774.019531 731.21875 C 772.308594 727.527344 770.511719 723.835938 769.496094 719.867188 C 768.988281 717.789062 768.25 715.851562 766.769531 714.234375 C 766.125 713.496094 765.617188 712.574219 765.292969 711.652344 C 763.957031 707.636719 762.386719 703.664062 761.695312 699.417969 C 760.910156 694.710938 759.988281 690.003906 758.648438 685.390625 C 758.417969 684.652344 758.277344 683.867188 757.679688 683.359375 C 754.816406 680.910156 754.265625 677.449219 753.757812 674.082031 C 753.339844 671.082031 753.15625 668.035156 753.523438 664.988281 C 753.570312 664.527344 753.523438 664.066406 753.523438 663.605469 C 752.785156 656.636719 752.878906 649.621094 753.15625 642.605469 C 753.523438 632.910156 753.617188 623.21875 753.292969 613.527344 C 753.019531 605.359375 752.695312 597.1875 752.695312 589.019531 C 752.695312 585.925781 752.695312 582.835938 752.601562 579.742188 C 752.417969 574.527344 752.003906 569.3125 750.894531 564.28125 C 749.417969 557.679688 747.847656 551.128906 744.941406 544.898438 C 742.21875 539.082031 740.1875 532.988281 738.109375 526.898438 C 735.664062 519.789062 734.972656 512.359375 735.800781 504.925781 C 736.402344 499.296875 737.417969 493.710938 738.617188 488.171875 C 740.1875 480.695312 741.847656 473.21875 742.679688 465.605469 C 742.816406 464.265625 742.769531 464.128906 741.480469 463.710938 C 739.21875 462.972656 737.003906 462.882812 734.832031 463.941406 C 733.265625 464.726562 731.695312 465.464844 730.125 466.296875 C 726.847656 468.003906 723.386719 469.203125 719.742188 469.941406 C 717.480469 470.402344 715.21875 470.542969 712.957031 469.941406 C 707.878906 468.605469 703.125 466.621094 698.785156 463.621094 C 695.695312 461.496094 693.617188 458.636719 692.695312 454.941406 C 692.417969 453.742188 692.046875 452.589844 691.632812 451.433594 C 690.988281 449.636719 689.785156 448.296875 688.03125 447.558594 C 684.386719 446.128906 680.648438 445.433594 676.726562 446.128906 C 673.449219 446.679688 670.863281 448.664062 668.277344 450.558594 C 664.910156 453.097656 662.785156 456.375 661.863281 460.480469 C 661.355469 462.695312 660.894531 464.910156 660.15625 467.082031 C 658.585938 471.652344 655.539062 474.882812 651.15625 476.820312 C 650.1875 477.234375 649.632812 477.695312 649.539062 478.804688 C 649.496094 479.726562 649.21875 480.652344 649.03125 481.574219 C 647.234375 490.019531 645.433594 498.464844 643.769531 506.957031 C 642.203125 515.171875 641.324219 523.433594 641.925781 531.835938 C 642.15625 534.925781 642.019531 538.066406 642.433594 541.113281 C 643.125 546.097656 643.679688 551.082031 644.09375 556.066406 C 645.019531 567.464844 645.664062 578.867188 645.203125 590.359375 C 644.785156 600.605469 644.695312 610.898438 643.910156 621.144531 C 643.769531 622.710938 643.632812 624.28125 643.449219 625.851562 C 642.941406 630.648438 642.386719 635.496094 641.832031 640.296875 C 641.371094 644.496094 641.464844 648.695312 640.816406 652.851562 C 640.355469 655.851562 640.539062 658.894531 640.308594 661.941406 C 639.894531 667.574219 638.972656 673.203125 638.417969 678.835938 C 638.140625 681.695312 637.957031 684.558594 638.277344 687.417969 C 638.695312 691.066406 639.109375 694.710938 639.664062 698.359375 C 640.171875 701.589844 641.046875 704.726562 642.894531 707.542969 C 643.308594 708.1875 643.585938 709.019531 643.816406 709.804688 C 644.601562 712.664062 645.480469 715.527344 645.800781 718.480469 C 646.816406 727.710938 648.433594 736.851562 649.21875 746.128906 C 649.769531 752.359375 650.1875 758.589844 650.785156 764.773438 C 651.0625 767.679688 651.386719 770.589844 652.496094 773.359375 C 653.832031 776.679688 655.585938 779.773438 657.757812 782.636719 C 660.664062 786.417969 663.292969 790.433594 666.480469 794.035156 C 669.757812 797.726562 672.988281 801.511719 675.941406 805.527344 C 676.585938 806.402344 677.277344 807.28125 677.972656 808.15625 C 679.171875 809.636719 680.417969 811.066406 681.664062 812.496094 C 682.585938 811.988281 683.1875 811.34375 683.832031 810.742188 C 684.664062 809.957031 685.585938 809.402344 686.554688 808.898438 C 687.386719 808.433594 688.078125 808.527344 688.816406 809.082031 C 691.726562 811.390625 693.847656 814.25 695.09375 817.757812 C 695.878906 820.019531 696.109375 822.328125 695.1875 824.589844 C 695.09375 824.773438 694.957031 825.003906 695.1875 825.234375 C 697.171875 825.003906 697.496094 824.820312 698.046875 823.019531 C 699.339844 818.636719 699.757812 820.066406 696.988281 815.820312 C 692.371094 808.664062 687.617188 801.558594 683.277344 794.265625 C 682.078125 792.234375 681.0625 790.15625 679.863281 788.171875 C 678.800781 786.464844 677.925781 784.710938 677.324219 782.820312 C 676.585938 780.417969 675.847656 778.019531 675.203125 775.621094 C 674.1875 771.789062 673.957031 767.773438 673.171875 763.898438 C 672.664062 761.3125 672.339844 758.726562 671.972656 756.097656 C 671.648438 754.019531 671.878906 751.894531 671.601562 749.820312 C 671.003906 744.835938 669.847656 739.941406 669.109375 734.957031 C 668.511719 730.941406 667.21875 727.113281 666.339844 723.1875 C 666.15625 722.449219 666.0625 721.710938 666.109375 720.925781 C 666.109375 720.511719 666.25 720.097656 666.800781 720.097656 C 666.894531 720.144531 667.078125 720.1875 667.125 720.28125 C 667.355469 720.695312 667.539062 721.113281 667.679688 721.527344 C 670.171875 727.34375 671.511719 733.527344 672.757812 739.710938 C 675.25 752.082031 677.878906 764.402344 679.539062 776.910156 C 680.140625 781.574219 681.433594 786.050781 684.203125 789.972656 C 686.09375 792.648438 687.941406 795.328125 689.878906 798.003906 C 692.601562 801.789062 695.09375 805.710938 697.171875 809.957031 C 697.539062 810.742188 698.003906 811.527344 698.464844 812.21875 C 700.308594 815.128906 702.203125 817.988281 703.957031 820.988281 C 704.832031 822.511719 705.800781 823.988281 706.816406 825.375 C 709.957031 829.664062 712.863281 834.097656 715.585938 838.621094 C 717.25 841.34375 718.863281 844.113281 721.632812 846.003906 C 723.292969 847.15625 724.957031 847.34375 726.757812 847.066406 C 728.832031 846.742188 729.710938 845.726562 729.800781 843.648438 C 729.800781 842.726562 729.800781 841.804688 729.617188 840.882812 C 729.0625 836.910156 727.496094 833.359375 725.601562 829.941406 C 724.957031 828.789062 724.265625 827.636719 723.109375 826.804688 C 721.496094 827.359375 720.15625 828.234375 718.910156 829.34375 C 717.757812 830.359375 716.554688 831.28125 715.171875 831.925781 C 714.523438 832.203125 713.785156 832.664062 713.003906 831.925781 C 713.046875 831.140625 713.601562 830.679688 714.203125 830.359375 C 715.910156 829.433594 717.433594 828.28125 718.957031 827.082031 C 719.742188 826.433594 720.617188 826.019531 721.539062 825.648438 C 723.25 824.957031 723.988281 825.1875 725.140625 826.710938 C 726.847656 828.925781 728.046875 831.375 729.15625 833.867188 C 730.726562 837.328125 732.019531 840.882812 731.511719 844.894531 Z M 882.847656 685.066406 L 883.171875 685.066406 C 883.355469 684.511719 883.585938 683.957031 883.726562 683.40625 C 885.292969 677.773438 887.324219 672.328125 889.496094 666.882812 C 891.015625 663.097656 892.679688 659.359375 893.648438 655.390625 C 894.523438 651.835938 895.449219 648.28125 896.324219 644.679688 C 898.265625 636.695312 899.371094 628.527344 900.941406 620.449219 C 902.371094 612.925781 903.0625 605.3125 902.925781 597.652344 C 902.832031 593.3125 902.371094 589.019531 902.371094 584.726562 C 902.371094 579.417969 901.355469 574.296875 900.664062 569.082031 C 900.109375 564.789062 899.140625 560.589844 899.09375 556.25 C 899.09375 554.40625 899.003906 552.511719 898.632812 550.664062 C 898.03125 547.574219 898.308594 544.527344 898.632812 541.433594 C 899.324219 534.972656 901.125 528.695312 901.21875 522.1875 C 901.21875 521.773438 901.308594 521.359375 901.402344 520.988281 C 902.742188 514.34375 904.125 507.742188 906.109375 501.234375 C 906.941406 498.511719 907.769531 495.742188 909.25 493.25 C 909.894531 492.097656 910.539062 490.898438 912.109375 490.296875 C 911.464844 490.113281 911.09375 489.972656 910.726562 489.882812 C 902.464844 487.621094 894.25 485.128906 886.21875 482.128906 C 872.601562 477.050781 858.480469 473.449219 844.308594 470.21875 C 842.1875 469.757812 840.109375 469.25 838.078125 468.558594 C 831.757812 466.433594 825.386719 464.496094 819.019531 462.695312 C 815.371094 461.679688 811.679688 461.40625 807.941406 461.449219 C 806.234375 461.449219 806.234375 461.542969 805.632812 463.25 C 804.800781 465.742188 804.203125 468.328125 803.601562 470.867188 C 802.449219 475.621094 801.433594 480.417969 799.496094 484.988281 C 798.847656 486.558594 798.25 488.128906 797.832031 489.789062 C 796.449219 495.789062 793.402344 501.050781 790.816406 506.542969 C 790.402344 507.417969 789.800781 508.25 789.15625 509.035156 C 787.679688 510.925781 786.433594 512.957031 785.371094 515.128906 C 784.125 517.621094 782.785156 520.113281 781.125 522.375 C 779.878906 524.035156 778.679688 525.789062 777.433594 527.496094 C 775.816406 529.757812 774.25 532.113281 772.171875 534.050781 C 769.769531 536.265625 767.648438 538.757812 765.710938 541.433594 C 764.371094 543.28125 762.894531 544.988281 761.046875 546.375 C 760.125 547.066406 759.386719 547.988281 758.742188 549.003906 C 757.585938 550.804688 756.710938 552.789062 755.648438 554.679688 C 755.140625 555.605469 755.046875 556.527344 755.324219 557.542969 C 755.925781 559.621094 756.570312 561.695312 756.894531 563.820312 C 757.816406 569.957031 758.648438 576.050781 758.742188 582.28125 C 758.878906 588.972656 758.832031 595.710938 758.972656 602.40625 C 759.203125 614.082031 759.386719 625.757812 758.695312 637.433594 C 758.003906 648.464844 757.910156 659.496094 758.09375 670.527344 C 758.09375 673.296875 758.601562 675.925781 759.941406 678.417969 C 761.648438 681.464844 762.988281 684.695312 763.816406 688.160156 C 764.785156 692.265625 765.710938 696.328125 766.402344 700.480469 C 766.496094 701.128906 766.632812 701.773438 766.863281 702.328125 C 767.511719 703.710938 767.832031 705.1875 768.15625 706.664062 C 768.664062 708.972656 769.402344 711.144531 770.878906 713.082031 C 771.664062 714.097656 772.265625 715.296875 772.496094 716.542969 C 773.277344 720.234375 774.710938 723.652344 776.140625 727.113281 C 776.925781 729.050781 777.894531 730.804688 779.601562 732.050781 C 780.480469 732.742188 781.308594 733.527344 781.769531 734.542969 C 783.386719 738.050781 785.695312 741.1875 787.171875 744.742188 C 788.464844 747.882812 790.308594 750.742188 791.785156 753.972656 C 791.972656 753.328125 792.109375 752.867188 792.203125 752.40625 C 793.539062 744.652344 795.480469 736.988281 797.09375 729.28125 C 798.0625 724.757812 799.496094 720.375 800.464844 715.898438 C 801.523438 711.003906 803.371094 706.433594 805.726562 702.050781 C 806.09375 701.359375 806.417969 700.621094 807.0625 700.25 C 807.988281 699.742188 808.449219 698.914062 808.910156 697.988281 C 809.234375 697.34375 809.601562 696.742188 810.019531 696.1875 C 810.523438 695.542969 811.125 695.171875 812.003906 695.496094 C 812.464844 696.234375 812.1875 696.972656 811.957031 697.667969 C 810.847656 700.941406 810.0625 704.265625 808.679688 707.449219 C 807.664062 709.804688 807.109375 712.296875 806.601562 714.835938 C 807.480469 715.25 808.265625 715.527344 808.957031 715.898438 C 811.957031 717.464844 815.324219 717.652344 818.554688 718.390625 C 819.019531 718.480469 819.480469 718.390625 819.941406 718.34375 C 822.480469 718.066406 825.0625 718.019531 827.648438 718.203125 C 829.679688 718.34375 831.710938 718.34375 833.785156 718.203125 C 836.785156 718.019531 839.601562 717.1875 842.234375 715.898438 C 842.417969 712.621094 843.203125 709.574219 844.171875 706.574219 C 844.726562 704.914062 845.371094 703.296875 846.0625 701.679688 C 846.339844 700.941406 846.847656 700.25 847.769531 700.480469 C 848.695312 700.757812 848.417969 701.636719 848.277344 702.28125 C 847.402344 706.433594 847.03125 710.726562 845.417969 714.835938 C 846.386719 715.480469 846.386719 716.542969 846.339844 717.605469 C 846.292969 718.941406 846.339844 720.28125 846.292969 721.621094 C 846.203125 723.652344 845.878906 725.773438 844.449219 727.160156 C 842.601562 728.914062 842.140625 730.898438 842.1875 733.203125 C 842.1875 733.25 842.1875 733.34375 842.1875 733.390625 C 841.816406 736.757812 841.265625 740.128906 841.449219 743.496094 C 841.816406 750.882812 839.695312 757.851562 837.800781 764.773438 C 837.109375 767.359375 836.371094 769.941406 836.046875 772.621094 C 835.910156 773.914062 835.726562 775.160156 835.769531 776.449219 C 835.769531 777.328125 836.140625 777.882812 836.972656 778.160156 C 838.308594 778.574219 839.648438 778.941406 841.078125 778.941406 C 844.769531 778.941406 847.957031 777.234375 851.140625 775.710938 C 851.234375 775.667969 851.324219 775.574219 851.417969 775.480469 C 854.554688 772.621094 857.554688 769.574219 859.679688 765.835938 C 861.339844 762.925781 862.726562 759.925781 863.832031 756.789062 C 866.234375 749.957031 869.046875 743.265625 870.894531 736.25 C 871.078125 735.464844 871.402344 734.679688 871.769531 733.941406 C 872.925781 731.449219 873.710938 728.820312 874.125 726.097656 C 874.355469 724.527344 874.726562 723.003906 875.046875 721.480469 C 875.925781 717.652344 876.292969 713.773438 876.292969 709.851562 C 876.292969 706.621094 876.292969 703.433594 876.757812 700.25 C 877.355469 695.40625 878.554688 690.605469 878.972656 685.710938 C 879.019531 685.019531 879.25 684.328125 879.710938 683.773438 C 880.539062 682.667969 881.695312 682.757812 882.339844 684.003906 C 882.570312 684.421875 882.710938 684.835938 882.894531 685.25 Z M 652.402344 394.433594 C 652.078125 395.21875 652.21875 395.914062 652.21875 396.605469 C 652.21875 400.25 651.570312 403.804688 650.511719 407.265625 C 650.003906 408.925781 649.308594 410.496094 648.800781 412.203125 C 646.726562 419.171875 643.769531 425.773438 639.988281 432.003906 C 636.617188 437.542969 633.339844 443.128906 630.15625 448.757812 C 627.386719 453.605469 624.664062 458.542969 623.371094 464.082031 C 622.769531 466.574219 622.632812 469.019531 622.863281 471.558594 C 622.863281 472.019531 622.863281 472.527344 623.324219 472.988281 C 623.878906 471.972656 624.339844 471.050781 624.847656 470.128906 C 626.09375 468.050781 627.941406 467.21875 630.339844 467.496094 C 632.046875 467.726562 633.617188 468.234375 635.1875 468.882812 C 638.234375 470.171875 641.234375 471.652344 644.1875 473.171875 C 647.371094 474.789062 649.679688 474.742188 652.632812 472.710938 C 655.769531 470.542969 657.523438 467.449219 658.355469 463.804688 C 658.769531 461.914062 659.1875 460.066406 659.785156 458.21875 C 662.234375 450.464844 667.957031 446.171875 675.292969 443.542969 C 675.523438 443.449219 675.757812 443.449219 675.988281 443.40625 C 680.417969 442.621094 684.710938 443.3125 688.863281 444.882812 C 691.355469 445.851562 693.15625 447.695312 694.21875 450.144531 C 694.679688 451.203125 695.09375 452.3125 695.371094 453.464844 C 696.25 457.019531 698.417969 459.558594 701.511719 461.40625 C 704.464844 463.203125 707.695312 464.40625 710.925781 465.605469 C 714.25 466.851562 717.523438 466.804688 720.894531 465.972656 C 724.726562 465.050781 728.277344 463.390625 731.695312 461.496094 C 735.0625 459.652344 738.570312 459.003906 742.308594 460.066406 C 743.648438 460.433594 744.339844 460.066406 745.355469 461.21875 C 746.417969 462.417969 747.757812 463.851562 748.496094 465.328125 C 751.03125 470.21875 755.140625 473.21875 759.941406 475.480469 C 763.03125 476.914062 766.265625 477.558594 769.632812 477.097656 C 771.480469 476.867188 773.234375 476.359375 774.847656 475.390625 C 774.800781 475.066406 774.800781 474.882812 774.710938 474.742188 C 773.1875 471.417969 772.585938 467.867188 772.308594 464.21875 C 772.125 461.726562 771.894531 459.234375 771.757812 456.695312 C 771.664062 455.265625 771.203125 453.925781 770.371094 452.773438 C 768.617188 450.328125 767.785156 447.605469 767.785156 444.558594 C 767.785156 442.480469 767.1875 440.542969 765.894531 438.835938 C 763.726562 435.925781 762.523438 432.558594 762.203125 428.957031 C 761.742188 423.882812 761.09375 418.851562 760.585938 413.820312 C 759.988281 408.234375 760.21875 402.652344 761.140625 397.066406 C 761.601562 394.296875 762.292969 391.574219 763.265625 388.757812 C 761.695312 388.757812 760.21875 388.757812 758.832031 388.34375 C 757.308594 387.882812 755.878906 388.113281 754.355469 388.433594 C 748.816406 389.726562 743.140625 389.589844 737.511719 389.589844 C 736.632812 389.589844 735.757812 389.40625 734.925781 389.171875 C 732.847656 388.710938 730.769531 388.480469 728.695312 388.433594 C 726.109375 388.34375 723.570312 388.066406 721.078125 387.511719 C 718.910156 387.050781 716.785156 387.050781 714.664062 387.417969 C 708.203125 388.527344 701.925781 390.328125 695.648438 392.171875 C 689.1875 394.066406 682.679688 395.035156 675.941406 394.296875 C 673.402344 394.019531 670.816406 393.789062 668.277344 393.652344 C 665.785156 393.558594 663.25 393.375 660.757812 393.144531 C 659.601562 393.003906 658.449219 392.957031 657.25 392.867188 C 656.695312 392.867188 656.234375 392.867188 655.957031 393.511719 C 655.585938 394.25 654.894531 394.34375 654.203125 394.34375 C 653.695312 394.34375 653.1875 394.113281 652.539062 394.34375 Z M 938.003906 454.390625 C 935.046875 454.898438 932.417969 454.296875 929.785156 453.375 C 921.988281 450.652344 914.09375 448.066406 906.386719 445.066406 C 906.15625 444.972656 905.925781 444.925781 905.742188 444.835938 C 899.234375 442.710938 892.632812 441.003906 886.21875 438.695312 C 876.15625 435.097656 865.863281 432.328125 855.203125 430.988281 C 846.480469 429.882812 837.757812 428.679688 828.988281 427.710938 C 824.371094 427.203125 819.710938 426.925781 815.09375 426.050781 C 814.265625 425.914062 813.339844 426.003906 812.464844 425.957031 C 811.496094 425.957031 810.894531 426.375 810.664062 427.25 C 810.109375 429.1875 809.1875 430.941406 808.03125 432.558594 C 807.710938 432.972656 807.570312 433.710938 807.386719 434.21875 C 805.957031 438.003906 804.847656 442.019531 803.554688 445.898438 C 802.125 450.144531 800.648438 454.390625 798.847656 458.496094 C 798.570312 459.097656 798.203125 459.742188 798.386719 460.527344 C 798.941406 460.527344 799.308594 460.203125 799.726562 460.019531 C 801.664062 459.003906 803.742188 458.359375 805.910156 458.171875 C 810.523438 457.757812 815.140625 457.941406 819.617188 459.328125 C 825.292969 461.082031 831.019531 462.742188 836.648438 464.636719 C 843.523438 466.898438 850.632812 468.234375 857.648438 470.035156 C 868.171875 472.664062 878.601562 475.621094 888.847656 479.3125 C 896.878906 482.21875 905.046875 484.621094 913.265625 486.882812 C 916.078125 487.664062 918.847656 488.589844 921.480469 489.882812 C 923.09375 490.664062 924.433594 491.726562 925.355469 493.296875 C 925.539062 493.621094 925.585938 494.082031 926.1875 494.21875 C 927.617188 492.328125 928.585938 490.160156 929.371094 487.898438 C 930.570312 484.574219 931.171875 481.113281 931.816406 477.695312 C 932.695312 473.035156 933.847656 468.464844 935.648438 464.082031 C 936.800781 461.265625 937.171875 458.21875 938.140625 455.3125 C 938.1875 455.128906 938.140625 454.851562 938.140625 454.390625 Z M 802.496094 730.113281 C 802.078125 730.710938 802.125 731.21875 802.125 731.679688 C 801.894531 737.957031 801.894531 744.28125 801.109375 750.558594 C 800.785156 753.003906 800.648438 755.449219 800.464844 757.898438 C 800.234375 761.265625 799.449219 764.589844 799.308594 767.957031 C 799.265625 769.203125 798.941406 770.40625 798.339844 771.464844 C 797.925781 772.203125 797.878906 772.851562 798.15625 773.636719 C 799.171875 776.957031 799.726562 780.328125 799.910156 783.789062 C 800.046875 786.464844 800.277344 789.144531 799.726562 791.820312 C 799.355469 793.527344 798.664062 795.1875 797.046875 795.925781 C 795.480469 796.664062 795.109375 797.726562 795.25 799.25 C 795.292969 799.851562 795.25 800.40625 795.25 801.003906 C 795.0625 802.941406 796.078125 804.1875 797.648438 805.15625 C 798.523438 805.710938 799.449219 806.035156 800.464844 806.128906 C 804.664062 806.449219 808.679688 805.664062 812.140625 803.21875 C 816.015625 800.496094 819.15625 796.898438 821.277344 792.558594 C 824.003906 786.925781 826.355469 781.160156 828.433594 775.25 C 830.511719 769.25 832.355469 763.15625 834.109375 757.066406 C 835.078125 753.835938 836.277344 750.652344 836.742188 747.28125 C 837.15625 744.328125 837.847656 741.464844 838.585938 738.558594 C 839.234375 735.972656 839.554688 733.34375 840.523438 730.527344 C 838.769531 731.3125 837.386719 732.097656 835.863281 732.417969 C 833.878906 732.835938 831.941406 733.480469 829.957031 734.035156 C 826.726562 734.957031 823.355469 735.050781 820.078125 734.589844 C 816.617188 734.128906 813.203125 733.34375 809.742188 732.742188 C 807.25 732.28125 804.941406 731.3125 802.632812 730.160156 Z M 780.988281 790.34375 C 780.800781 790.113281 780.757812 789.972656 780.664062 789.925781 C 780.386719 789.695312 780.109375 789.464844 779.832031 789.28125 C 774.710938 785.40625 770.878906 780.464844 768.15625 774.652344 C 767.511719 773.265625 766.863281 771.882812 765.941406 770.679688 C 764.554688 768.882812 763.632812 766.941406 762.800781 764.867188 C 761.046875 760.433594 758.234375 756.605469 755.601562 752.679688 C 755.371094 752.359375 755.140625 751.851562 754.496094 751.941406 C 754.402344 752.40625 754.308594 752.867188 754.21875 753.28125 C 753.480469 756.652344 752.972656 760.066406 752.1875 763.390625 C 749.925781 773.035156 749.554688 782.773438 749.695312 792.605469 C 749.878906 803.914062 750.664062 815.21875 750.617188 826.574219 C 750.617188 829.804688 750.941406 832.988281 751.679688 836.128906 C 751.863281 836.867188 751.957031 837.695312 752.601562 838.480469 C 752.695312 836.171875 752.925781 834.144531 753.710938 832.25 C 753.664062 831.835938 753.339844 831.742188 753.15625 831.511719 C 752.925781 831.234375 752.742188 830.914062 753.015625 830.589844 C 753.25 830.3125 753.523438 830.359375 753.800781 830.449219 C 757.539062 831.605469 761.371094 831.789062 765.203125 831.695312 C 766.726562 831.695312 768.203125 831.742188 769.769531 832.25 C 770.511719 835.480469 770.1875 838.621094 768.941406 841.664062 C 770.554688 840.417969 771.570312 838.851562 772.21875 836.957031 C 773.140625 834.28125 773.554688 831.511719 774.015625 828.789062 C 775.21875 821.773438 775.957031 814.667969 777.847656 807.789062 C 778.125 806.726562 778.308594 805.621094 778.539062 804.558594 C 779.417969 799.851562 779.601562 795.050781 780.894531 790.390625 Z M 735.988281 737.589844 C 735.019531 738.605469 733.957031 739.34375 732.800781 739.898438 C 731.601562 740.449219 730.355469 741.097656 729.109375 741.464844 C 723.894531 742.941406 718.679688 744.375 713.417969 745.757812 C 712.265625 746.082031 711.019531 746.128906 709.816406 746.3125 C 709.863281 746.589844 709.910156 746.773438 709.957031 746.910156 C 711.386719 750.234375 712.632812 753.605469 713.648438 757.113281 C 714.523438 760.160156 715.496094 763.160156 716.832031 766.019531 C 717.847656 768.234375 719.324219 770.035156 721.355469 771.417969 C 723.523438 772.898438 725.601562 774.511719 728.003906 775.574219 C 728.324219 775.710938 728.554688 775.988281 728.832031 776.171875 C 729.480469 776.636719 730.125 777.1875 730.816406 777.605469 C 734.742188 779.820312 738.386719 782.449219 741.988281 785.128906 C 743.277344 786.097656 744.617188 787.066406 746.417969 787.25 C 746.601562 785.035156 746.878906 782.867188 747.019531 780.652344 C 747.480469 774.417969 747.25 768.144531 748.726562 762.050781 C 748.863281 761.542969 748.816406 761.128906 748.308594 760.851562 C 746.1875 759.695312 744.757812 757.664062 742.585938 756.558594 C 741.664062 756.097656 741.109375 755.265625 740.832031 754.25 C 739.449219 749.265625 738.0625 744.234375 736.632812 739.25 C 736.496094 738.742188 736.449219 738.1875 735.941406 737.636719 Z M 843.847656 718.25 C 843.339844 718.433594 842.972656 718.527344 842.648438 718.664062 C 839.324219 720.234375 835.816406 720.882812 832.171875 721.066406 C 829.402344 721.203125 826.679688 720.742188 823.957031 721.066406 C 820.125 721.480469 816.433594 721.066406 812.742188 720.050781 C 810.988281 719.589844 809.234375 719.171875 807.617188 718.390625 C 807.0625 718.113281 806.511719 717.742188 805.679688 717.925781 C 804.203125 720.742188 803.742188 723.882812 803.1875 727.113281 C 805.449219 728.359375 807.800781 729.234375 810.25 729.695312 C 812.417969 730.113281 814.632812 730.34375 816.800781 730.804688 C 821.832031 731.867188 826.769531 731.726562 831.664062 730.15625 C 832.355469 729.925781 833.140625 729.835938 833.878906 729.695312 C 836.371094 729.328125 838.539062 728.265625 840.617188 726.972656 C 841.585938 726.375 842.277344 725.496094 842.742188 724.480469 C 843.617188 722.589844 843.894531 720.605469 843.800781 718.296875 Z M 743.925781 490.296875 C 748.496094 489.605469 752.742188 489.375 756.988281 489.328125 C 758.1875 489.328125 759.433594 489.097656 760.632812 488.957031 C 761.601562 488.867188 762.480469 488.542969 763.171875 487.898438 C 764.878906 486.417969 766.769531 485.3125 768.757812 484.296875 C 770.464844 483.417969 771.757812 481.988281 772.910156 480.464844 C 772.402344 480.1875 772.078125 480.464844 771.757812 480.511719 C 767.648438 481.574219 763.632812 481.25 759.710938 479.820312 C 755.371094 478.203125 751.585938 475.710938 748.402344 472.390625 C 748.078125 472.019531 747.847656 471.464844 747.15625 471.464844 C 746.371094 477.695312 744.800781 483.789062 743.878906 490.296875 Z M 749.878906 756.742188 C 750.523438 754.664062 751.03125 752.773438 751.496094 750.925781 C 751.957031 749.035156 751.679688 747.511719 750.664062 745.804688 C 749.09375 743.21875 747.292969 740.726562 746.277344 737.867188 C 745.21875 734.820312 744.15625 731.820312 743.140625 728.773438 C 742.539062 727.019531 741.847656 725.265625 741.015625 723.605469 C 738.894531 719.265625 736.539062 715.019531 733.632812 711.097656 C 733.402344 710.773438 733.355469 710.3125 732.800781 710.265625 C 732.480469 711.003906 732.570312 711.789062 732.664062 712.480469 C 732.988281 714.742188 733.402344 716.957031 733.769531 719.21875 C 733.863281 719.867188 734.554688 720.050781 734.832031 720.558594 C 734.925781 720.789062 735.0625 720.972656 735.109375 721.203125 C 735.203125 721.757812 735.570312 721.941406 736.03125 722.128906 C 737.785156 722.773438 738.710938 724.160156 739.078125 725.910156 C 739.679688 728.773438 739.769531 731.589844 738.203125 734.21875 C 737.742188 735.003906 737.695312 735.695312 738.109375 736.480469 C 738.988281 738.1875 739.585938 740.035156 740.234375 741.835938 C 741.292969 744.925781 742.449219 747.972656 743.554688 751.066406 C 743.878906 751.941406 744.203125 752.820312 745.125 753.28125 C 746.832031 754.113281 748.308594 755.21875 749.878906 756.652344 Z M 734.09375 724.527344 C 732.941406 725.679688 731.832031 726.558594 731.003906 727.621094 C 729.203125 729.925781 726.988281 731.449219 724.21875 732.28125 C 723.339844 732.558594 722.464844 732.882812 721.539062 733.160156 C 719.972656 733.664062 718.308594 733.941406 716.925781 734.726562 C 714.019531 736.390625 710.832031 736.710938 707.695312 737.082031 C 706.078125 737.265625 704.417969 737.128906 702.894531 736.480469 C 702.570312 736.34375 702.25 735.972656 701.785156 736.25 C 701.511719 739.113281 702.15625 740.21875 704.417969 741.558594 C 706.816406 742.941406 709.308594 742.898438 711.894531 742.527344 C 714.941406 742.066406 717.800781 740.820312 720.847656 740.082031 C 724.265625 739.296875 727.449219 737.867188 730.632812 736.390625 C 733.03125 735.28125 734.417969 733.203125 735.109375 730.851562 C 735.664062 728.867188 735.664062 726.695312 734.140625 724.527344 Z M 643.539062 487.433594 C 644.1875 483.925781 645.25 480.605469 645.523438 477.144531 C 643.496094 476.128906 641.601562 475.160156 639.757812 474.234375 C 637.355469 473.082031 634.957031 471.835938 632.511719 470.773438 C 628.816406 469.25 627.292969 469.988281 626.003906 473.726562 C 626.003906 473.820312 626.003906 473.957031 626.003906 474.144531 C 626.925781 474.742188 628.125 474.695312 628.957031 475.480469 C 630.800781 477.28125 632.695312 478.988281 633.664062 481.480469 C 634.125 482.726562 634.726562 483.925781 635.554688 484.988281 C 636.617188 486.328125 637.957031 487.203125 639.664062 487.34375 C 640.863281 487.433594 642.109375 487.34375 643.539062 487.34375 Z M 788.648438 774.972656 C 788.003906 774.882812 787.585938 775.160156 787.21875 775.390625 C 786.109375 776.128906 784.910156 776.726562 783.664062 777.28125 C 782.324219 777.882812 781.03125 778.527344 779.695312 779.128906 C 779.003906 779.449219 778.679688 779.957031 779.046875 780.652344 C 779.925781 782.496094 780.847656 784.296875 781.769531 786.097656 C 781.910156 786.328125 782.1875 786.511719 782.417969 786.695312 C 783.894531 787.851562 785.371094 789.003906 786.847656 790.160156 C 788.234375 791.21875 789.757812 792.144531 791.371094 792.742188 C 793.632812 793.574219 795.386719 792.375 795.480469 789.972656 C 795.480469 788.867188 795.433594 787.757812 795.433594 786.652344 C 795.433594 785.636719 795.109375 784.757812 794.601562 783.835938 C 793.402344 781.757812 791.832031 779.957031 790.539062 777.925781 C 789.894531 776.910156 789.25 775.851562 788.648438 774.925781 Z M 755.324219 832.34375 C 754.449219 835.757812 754.632812 838.941406 755.785156 842.082031 C 755.878906 842.3125 755.972656 842.542969 756.15625 842.679688 C 758.140625 844.113281 760.078125 845.589844 762.800781 845.21875 C 764.742188 844.941406 766.171875 843.742188 767.742188 842.773438 C 768.523438 842.3125 768.710938 841.664062 768.386719 840.835938 C 767.695312 838.941406 767.742188 836.957031 767.742188 834.972656 C 767.742188 834.375 767.742188 833.726562 767.742188 832.988281 C 763.585938 833.035156 759.433594 833.449219 755.324219 832.34375 Z M 687.570312 810.003906 C 685.539062 810.835938 684.386719 812.679688 682.539062 813.652344 C 685.125 816.835938 687.570312 819.882812 690.0625 822.882812 C 690.894531 823.898438 692.003906 824.636719 693.25 824.957031 C 695.046875 818.542969 692.324219 813.925781 687.570312 810.003906 Z M 913.402344 500.3125 C 914.003906 500.773438 914.464844 500.957031 915.109375 501.003906 C 917.742188 501.097656 919.816406 499.851562 921.523438 498.003906 C 922.863281 496.527344 922.585938 494.773438 920.972656 493.621094 C 919.308594 492.464844 917.371094 491.867188 915.292969 491.128906 C 914.925781 494.449219 914.140625 497.40625 913.402344 500.3125 Z M 796.632812 754.621094 C 796.539062 754.988281 796.402344 755.40625 796.308594 755.773438 C 795.800781 757.851562 795.617188 760.066406 794.464844 761.957031 C 794.324219 762.1875 794.277344 762.558594 794.371094 762.789062 C 794.695312 764.171875 795.109375 765.558594 795.480469 766.941406 C 795.617188 766.941406 795.710938 766.941406 795.847656 766.898438 C 796.125 762.789062 796.769531 758.726562 796.679688 754.621094 Z M 796.632812 754.621094 " fill-opacity="1" fill-rule="nonzero"/></g><path fill="#82120d" d="M 744.941406 338.636719 C 743.09375 340.390625 741.523438 342.234375 740.511719 344.496094 C 739.402344 346.898438 738.710938 349.433594 738.710938 352.113281 C 738.710938 355.941406 738.710938 359.820312 738.433594 363.652344 C 738.109375 367.621094 737.464844 371.496094 735.617188 375.144531 C 735.847656 373.25 736.078125 371.359375 736.355469 369.511719 C 736.769531 366.835938 736.957031 364.160156 736.957031 361.480469 C 736.957031 358.621094 736.957031 355.757812 736.957031 352.898438 C 736.957031 346.898438 739.308594 341.914062 743.648438 337.804688 C 744.25 337.203125 744.894531 336.417969 745.910156 336.835938 C 746.972656 337.296875 746.878906 338.359375 746.832031 339.28125 C 746.601562 342.050781 746.371094 344.867188 746.046875 347.636719 C 745.496094 351.972656 745.171875 356.359375 744.800781 360.695312 C 744.433594 365.21875 743.601562 369.605469 741.523438 373.664062 C 740.464844 375.695312 739.21875 377.589844 737.464844 379.066406 C 736.910156 379.527344 736.21875 380.359375 735.523438 379.710938 C 734.648438 378.882812 735.800781 378.417969 736.265625 377.957031 C 739.585938 374.3125 741.386719 369.925781 742.265625 365.128906 C 743.003906 361.066406 743.09375 356.914062 743.648438 352.757812 C 744.203125 348.417969 744.710938 344.082031 745.265625 339.742188 C 745.265625 339.464844 745.402344 339.1875 745.078125 338.589844 Z M 744.941406 338.636719 " fill-opacity="1" fill-rule="nonzero"/><path fill="#82120d" d="M 673.957031 384.558594 C 669.800781 384.789062 665.832031 382.066406 664.125 377.542969 C 663.480469 375.835938 663.15625 374.082031 663.0625 372.234375 C 662.925781 369.742188 662.972656 367.203125 663.019531 364.710938 C 663.019531 362.21875 663.0625 359.679688 663.0625 357.1875 C 663.0625 356.082031 663.0625 354.972656 662.09375 354.144531 C 661.910156 354.003906 661.863281 353.773438 661.769531 353.542969 C 661.402344 352.574219 661.632812 351.558594 662.277344 351.144531 C 663.019531 350.679688 663.988281 350.957031 664.726562 351.835938 C 665.511719 352.804688 665.878906 354.003906 666.15625 355.203125 C 666.617188 357.144531 666.800781 359.128906 666.894531 361.113281 C 667.03125 364.433594 667.125 367.757812 667.21875 371.082031 C 667.21875 372.375 667.402344 373.621094 667.632812 374.914062 C 668.046875 377.21875 669.0625 379.203125 670.679688 380.914062 C 671.832031 382.113281 672.941406 383.40625 673.957031 384.605469 Z M 673.957031 384.558594 " fill-opacity="1" fill-rule="nonzero"/><path fill="#82120d" d="M 766.632812 325.25 C 766.863281 328.25 766.585938 331.113281 766.308594 333.972656 C 765.710938 339.789062 765.019531 345.558594 764.324219 351.375 C 763.632812 357.050781 762.710938 362.726562 760.449219 368.035156 C 757.863281 374.035156 754.21875 379.25 748.863281 383.128906 C 748.679688 383.265625 748.496094 383.40625 748.308594 383.542969 C 747.894531 383.820312 747.386719 384.28125 746.925781 383.726562 C 746.511719 383.171875 747.0625 382.757812 747.386719 382.390625 C 747.523438 382.203125 747.710938 382.066406 747.894531 381.882812 C 755.09375 375.328125 759.0625 367.066406 760.769531 357.558594 C 762.0625 350.449219 763.21875 343.296875 764.277344 336.144531 C 764.832031 332.496094 765.664062 328.941406 766.679688 325.25 Z M 766.632812 325.25 " fill-opacity="1" fill-rule="nonzero"/><path fill="#82120d" d="M 712.496094 342.375 C 713.695312 343.941406 713.972656 345.417969 714.109375 346.851562 C 714.941406 355.390625 714.617188 363.835938 712.496094 372.1875 C 711.800781 374.957031 710.832031 377.636719 709.769531 380.3125 C 709.539062 380.820312 709.449219 381.417969 708.757812 381.695312 C 707.925781 381.234375 708.203125 380.496094 708.339844 379.851562 C 708.710938 378.511719 709.125 377.171875 709.539062 375.835938 C 712.726562 365.726562 713.1875 355.34375 712.585938 344.867188 C 712.585938 344.40625 712.539062 343.941406 712.496094 343.480469 C 712.496094 343.25 712.496094 343.019531 712.496094 342.417969 Z M 712.496094 342.375 " fill-opacity="1" fill-rule="nonzero"/><path fill="#82120d" d="M 686.601562 385.804688 C 685.078125 385.988281 684.0625 385.390625 683.234375 384.417969 C 682.21875 383.21875 681.386719 381.882812 680.832031 380.40625 C 678.941406 375.417969 678.15625 370.296875 678.664062 364.941406 C 678.800781 363.558594 678.847656 362.128906 679.171875 360.789062 C 679.402344 359.726562 679.496094 359.589844 680.511719 358.710938 C 680.003906 363.558594 680.003906 368.21875 681.15625 372.882812 C 682.265625 377.449219 683.785156 381.835938 686.601562 385.851562 Z M 686.601562 385.804688 " fill-opacity="1" fill-rule="nonzero"/><path fill="#82120d" d="M 695.464844 382.527344 C 694.355469 380.542969 694.078125 378.511719 693.941406 376.433594 C 693.800781 374.449219 694.078125 372.464844 694.496094 370.527344 C 694.585938 370.066406 694.726562 369.605469 694.957031 369.1875 C 695.1875 368.636719 695.511719 368.082031 696.25 368.3125 C 696.894531 368.542969 696.757812 369.1875 696.664062 369.652344 C 695.925781 373.851562 695.742188 378.097656 695.511719 382.480469 Z M 695.464844 382.527344 " fill-opacity="1" fill-rule="nonzero"/><path fill="#82120d" d="M 677.554688 400.804688 C 675.523438 404.082031 673.308594 407.359375 670.910156 410.496094 C 668.417969 413.679688 666.109375 416.957031 664.265625 420.558594 C 662.925781 423.144531 661.769531 425.820312 660.941406 428.636719 C 659.09375 435.050781 657.019531 441.328125 654.941406 447.652344 C 653.785156 451.160156 652.308594 454.480469 650.371094 457.664062 C 649.308594 459.417969 648.386719 461.21875 647.417969 463.019531 C 647.234375 463.390625 647.046875 463.804688 646.539062 463.664062 C 645.988281 463.527344 645.894531 463.019531 645.988281 462.511719 C 646.265625 461.171875 646.863281 459.972656 647.417969 458.773438 C 649.171875 455.21875 650.878906 451.621094 652.03125 447.835938 C 653.925781 441.652344 655.957031 435.511719 657.664062 429.234375 C 659.511719 422.542969 662.648438 416.589844 667.171875 411.28125 C 669.523438 408.511719 671.925781 405.835938 674.648438 403.433594 C 675.664062 402.558594 676.585938 401.636719 677.511719 400.804688 Z M 677.554688 400.804688 " fill-opacity="1" fill-rule="nonzero"/><path fill="#82120d" d="M 733.957031 426.882812 C 734.878906 428.265625 735.894531 429.605469 736.910156 430.804688 C 740.464844 435.050781 742.679688 439.941406 744.292969 445.160156 C 744.570312 446.082031 744.894531 447.003906 745.355469 448.34375 C 744.847656 447.835938 744.523438 447.558594 744.25 447.234375 C 742.726562 445.574219 741.570312 443.679688 740.648438 441.695312 C 739.496094 439.25 737.972656 437.082031 736.171875 435.050781 C 734.554688 433.296875 733.125 431.359375 731.742188 429.417969 C 728.648438 425.035156 726.847656 420.1875 726.433594 414.789062 C 726.339844 413.21875 726.15625 411.652344 725.511719 410.171875 C 725.324219 409.710938 725.234375 409.203125 725.742188 408.925781 C 726.292969 408.605469 726.757812 408.925781 727.125 409.296875 C 727.726562 409.941406 728.046875 410.773438 728.234375 411.652344 C 728.972656 414.835938 729.203125 418.390625 730.726562 421.433594 C 731.648438 423.234375 732.710938 425.082031 733.910156 426.882812 Z M 733.957031 426.882812 " fill-opacity="1" fill-rule="nonzero"/><path fill="#82120d" d="M 702.757812 406.433594 C 702.757812 406.433594 702.894531 406.757812 702.894531 406.851562 C 702.25 409.296875 702.894531 411.605469 703.632812 413.867188 C 704.648438 416.867188 705.019531 420.003906 705.433594 423.097656 C 705.894531 426.375 706.496094 429.652344 707.046875 432.925781 C 707.277344 434.171875 707.878906 435.234375 708.617188 436.203125 C 710.554688 438.652344 711.570312 441.464844 712.125 444.511719 C 712.679688 447.605469 713.371094 450.695312 713.972656 453.789062 C 714.386719 456.003906 714.25 458.171875 713.648438 460.527344 C 712.496094 456.234375 711.0625 452.21875 710.140625 448.066406 C 709.769531 446.449219 709.539062 444.835938 709.21875 443.265625 C 708.800781 441.417969 708.15625 439.664062 707.003906 438.1875 C 705.480469 436.296875 704.648438 434.171875 704.464844 431.773438 C 704.324219 429.695312 703.957031 427.621094 703.539062 425.542969 C 703.21875 423.835938 703.308594 422.035156 703.125 420.328125 C 702.894531 417.882812 702.292969 415.527344 701.742188 413.128906 C 701.417969 411.742188 701.324219 410.359375 701.511719 408.972656 C 701.601562 408.050781 701.832031 407.171875 702.710938 406.574219 Z M 702.757812 406.433594 " fill-opacity="1" fill-rule="nonzero"/><path fill="#82120d" d="M 696.988281 398.914062 C 697.078125 401.21875 696.664062 403.433594 696.433594 405.695312 C 696.292969 406.804688 696.339844 407.957031 696.664062 408.972656 C 697.816406 412.574219 697.957031 416.265625 698.371094 420.003906 C 699.019531 425.679688 699.292969 431.359375 700.816406 436.941406 C 701.695312 440.082031 701.554688 443.40625 701.925781 446.679688 C 702.339844 450.097656 702.617188 453.511719 702.894531 456.925781 C 702.988281 457.804688 703.078125 458.589844 703.632812 459.464844 C 702.523438 459.464844 702.25 458.773438 702.0625 458.171875 C 701.742188 456.925781 701.417969 455.679688 701.277344 454.433594 C 700.679688 449.359375 699.894531 444.28125 699.480469 439.160156 C 699.386719 438.234375 699.292969 437.3125 699.019531 436.390625 C 698.003906 432.925781 697.769531 429.417969 697.355469 425.867188 C 696.941406 422.40625 696.570312 418.941406 696.25 415.433594 C 696.109375 413.867188 695.511719 412.390625 695.046875 410.867188 C 693.800781 406.574219 694.632812 402.605469 696.988281 398.914062 Z M 696.988281 398.914062 " fill-opacity="1" fill-rule="nonzero"/><path fill="#82120d" d="M 706.078125 396.050781 C 707.601562 394.664062 709.632812 394.527344 711.523438 394.066406 C 713.742188 393.558594 716.046875 393.558594 718.308594 393.558594 C 721.355469 393.558594 724.355469 393.695312 727.402344 393.328125 C 730.632812 392.914062 733.816406 393.417969 737.003906 393.742188 C 738.15625 393.882812 739.308594 393.835938 740.511719 393.789062 C 745.863281 393.652344 751.21875 393.835938 756.570312 394.621094 C 757.03125 394.664062 757.496094 394.710938 757.957031 394.804688 C 757.863281 395.3125 757.449219 395.21875 757.125 395.265625 C 754.726562 395.359375 752.371094 395.773438 749.972656 395.726562 C 746.046875 395.726562 742.171875 395.726562 738.25 395.726562 C 736.863281 395.726562 735.433594 395.589844 734.046875 395.359375 C 731.554688 394.898438 729.0625 395.035156 726.570312 395.21875 C 724.308594 395.40625 722.046875 395.40625 719.742188 395.21875 C 716.003906 394.851562 712.265625 394.898438 708.570312 395.449219 C 707.742188 395.589844 706.910156 395.867188 706.03125 396.050781 Z M 706.078125 396.050781 " fill-opacity="1" fill-rule="nonzero"/><path fill="#82120d" d="M 926.925781 472.480469 C 926.925781 475.019531 924.292969 477.375 921.617188 477.28125 C 919.03125 477.234375 916.769531 474.605469 916.863281 471.789062 C 916.863281 469.390625 919.308594 467.21875 921.941406 467.21875 C 924.617188 467.21875 926.972656 469.710938 926.925781 472.480469 Z M 919.078125 471.417969 C 919.21875 472.664062 919.726562 473.589844 920.742188 474.1875 C 921.664062 474.742188 922.957031 474.375 923.601562 473.40625 C 924.15625 472.621094 923.925781 471.742188 923.003906 471.003906 C 921.894531 470.128906 920.972656 470.21875 919.078125 471.375 Z M 919.078125 471.417969 " fill-opacity="1" fill-rule="nonzero"/><g fill="#82120d" fill-opacity="1"><g transform="translate(316.444709, 1015.290421)"><g><path d="M 68.6875 0 L 7.0625 0 L 7.0625 -1.0625 L 56.453125 -78.921875 L 16.8125 -78.921875 C 14.851562 -78.835938 13.207031 -78.128906 11.875 -76.796875 C 10.539062 -75.460938 9.875 -73.816406 9.875 -71.859375 L 9.875 -69.75 L 8.703125 -69.75 L 8.703125 -84.5625 C 9.878906 -84.09375 11.957031 -83.617188 14.9375 -83.140625 C 17.914062 -82.671875 20.007812 -82.4375 21.21875 -82.4375 C 22.4375 -82.4375 23.046875 -82.4375 23.046875 -82.4375 L 55.75 -82.4375 C 59.59375 -82.4375 62.53125 -82.648438 64.5625 -83.078125 C 66.601562 -83.515625 67.820312 -83.8125 68.21875 -83.96875 L 68.21875 -82.921875 L 17.875 -3.53125 L 55.28125 -3.53125 C 59.4375 -3.53125 62.84375 -4.863281 65.5 -7.53125 C 68.164062 -10.195312 70.128906 -13.722656 71.390625 -18.109375 L 72.5625 -18.109375 Z M 68.6875 0 "/></g></g></g><g fill="#82120d" fill-opacity="1"><g transform="translate(395.831269, 1015.290421)"><g><path d="M 84.21875 -1.171875 L 85.15625 -1.171875 L 85.15625 0 L 58.6875 0 L 58.6875 -1.171875 L 59.75 -1.171875 C 61.394531 -1.171875 62.628906 -1.695312 63.453125 -2.75 C 64.273438 -3.8125 64.6875 -4.8125 64.6875 -5.75 C 64.6875 -6.695312 64.53125 -7.640625 64.21875 -8.578125 L 56.6875 -28.578125 L 24.9375 -28.578125 L 17.0625 -8.46875 C 16.75 -7.53125 16.59375 -6.609375 16.59375 -5.703125 C 16.59375 -4.796875 17.003906 -3.8125 17.828125 -2.75 C 18.648438 -1.695312 19.882812 -1.171875 21.53125 -1.171875 L 22.59375 -1.171875 L 22.59375 0 L -1.046875 0 L -1.046875 -1.171875 L 0 -1.171875 C 1.96875 -1.171875 3.890625 -1.796875 5.765625 -3.046875 C 7.648438 -4.304688 9.179688 -6.148438 10.359375 -8.578125 L 36.9375 -71.859375 C 39.832031 -78.210938 41.28125 -82.25 41.28125 -83.96875 L 42.34375 -83.96875 L 73.859375 -8.578125 C 74.960938 -6.148438 76.453125 -4.304688 78.328125 -3.046875 C 80.210938 -1.796875 82.175781 -1.171875 84.21875 -1.171875 Z M 26.359375 -32.109375 L 55.28125 -32.109375 L 41.171875 -69.859375 Z M 26.359375 -32.109375 "/></g></g></g><g fill="#82120d" fill-opacity="1"><g transform="translate(482.392003, 1015.290421)"><g><path d="M 8.578125 -1.171875 C 10.617188 -1.171875 12.363281 -1.894531 13.8125 -3.34375 C 15.269531 -4.800781 16.035156 -6.546875 16.109375 -8.578125 L 16.109375 -73.859375 C 16.035156 -75.898438 15.269531 -77.625 13.8125 -79.03125 C 12.363281 -80.445312 10.617188 -81.15625 8.578125 -81.15625 L 7.0625 -81.15625 L 7.0625 -82.328125 L 32.8125 -82.328125 L 32.8125 -81.15625 L 31.28125 -81.15625 C 29.238281 -81.15625 27.492188 -80.445312 26.046875 -79.03125 C 24.597656 -77.625 23.832031 -75.898438 23.75 -73.859375 L 23.75 -8.578125 C 23.75 -6.546875 24.492188 -4.800781 25.984375 -3.34375 C 27.472656 -1.894531 29.238281 -1.171875 31.28125 -1.171875 L 32.8125 -1.171875 L 32.8125 0 L 7.0625 0 L 7.0625 -1.171875 Z M 8.578125 -1.171875 "/></g></g></g><g fill="#82120d" fill-opacity="1"><g transform="translate(524.966847, 1015.290421)"><g><path d="M 91.5 -81.15625 C 89.539062 -81.15625 87.851562 -80.46875 86.4375 -79.09375 C 85.03125 -77.71875 84.285156 -76.050781 84.203125 -74.09375 L 84.203125 -13.40625 C 84.203125 -8.863281 84.476562 -4.550781 85.03125 -0.46875 L 85.265625 1.640625 L 84.203125 1.640625 L 20.109375 -66.796875 L 20.109375 -8.234375 C 20.191406 -5.484375 21.40625 -3.441406 23.75 -2.109375 C 24.851562 -1.484375 26.03125 -1.171875 27.28125 -1.171875 L 29.515625 -1.171875 L 29.515625 0 L 5.296875 0 L 5.296875 -1.171875 L 7.53125 -1.171875 C 9.488281 -1.171875 11.171875 -1.859375 12.578125 -3.234375 C 13.992188 -4.609375 14.703125 -6.3125 14.703125 -8.34375 L 14.703125 -69.390625 C 14.703125 -74.171875 14.425781 -78.441406 13.875 -82.203125 L 13.640625 -84.09375 L 14.8125 -84.09375 L 78.921875 -15.640625 L 78.921875 -73.96875 C 78.835938 -76.007812 78.085938 -77.71875 76.671875 -79.09375 C 75.265625 -80.46875 73.582031 -81.15625 71.625 -81.15625 L 69.390625 -81.15625 L 69.390625 -82.328125 L 93.609375 -82.328125 L 93.609375 -81.15625 Z M 91.5 -81.15625 "/></g></g></g><g fill="#82120d" fill-opacity="1"><g transform="translate(626.710307, 1015.290421)"><g/></g></g><g fill="#82120d" fill-opacity="1"><g transform="translate(658.93554, 1015.290421)"><g/></g></g><g fill="#82120d" fill-opacity="1"><g transform="translate(691.160772, 1015.290421)"><g/></g></g><g fill="#82120d" fill-opacity="1"><g transform="translate(723.386004, 1015.290421)"><g/></g></g><g fill="#82120d" fill-opacity="1"><g transform="translate(755.611236, 1015.290421)"><g/></g></g><g fill="#82120d" fill-opacity="1"><g transform="translate(787.836469, 1015.290421)"><g/></g></g><g fill="#82120d" fill-opacity="1"><g transform="translate(820.061701, 1015.290421)"><g/></g></g><g fill="#82120d" fill-opacity="1"><g transform="translate(852.286933, 1015.290421)"><g/></g></g><g fill="#82120d" fill-opacity="1"><g transform="translate(884.512165, 1015.290421)"><g/></g></g><g fill="#82120d" fill-opacity="1"><g transform="translate(916.73763, 1015.290421)"><g><path d="M 86.4375 -81.15625 L 84.5625 -81.15625 C 82.914062 -81.15625 81.484375 -80.625 80.265625 -79.5625 C 79.054688 -78.5 78.410156 -77.1875 78.328125 -75.625 L 78.328125 -29.046875 C 78.328125 -19.878906 75.425781 -12.472656 69.625 -6.828125 C 63.820312 -1.179688 56.097656 1.640625 46.453125 1.640625 C 36.804688 1.640625 28.984375 -1.160156 22.984375 -6.765625 C 16.992188 -12.367188 14 -19.757812 14 -28.9375 L 14 -75.265625 C 14 -77.617188 12.976562 -79.34375 10.9375 -80.4375 C 10 -80.914062 8.941406 -81.15625 7.765625 -81.15625 L 5.875 -81.15625 L 5.875 -82.328125 L 29.75 -82.328125 L 29.75 -81.15625 L 27.875 -81.15625 C 26.144531 -81.15625 24.691406 -80.625 23.515625 -79.5625 C 22.335938 -78.5 21.710938 -77.144531 21.640625 -75.5 L 21.640625 -30.578125 C 21.640625 -22.035156 23.929688 -15.132812 28.515625 -9.875 C 33.109375 -4.625 39.242188 -2 46.921875 -2 C 54.609375 -2 60.84375 -4.488281 65.625 -9.46875 C 70.40625 -14.445312 72.796875 -20.972656 72.796875 -29.046875 L 72.796875 -75.5 C 72.722656 -77.144531 72.097656 -78.5 70.921875 -79.5625 C 69.742188 -80.625 68.289062 -81.15625 66.5625 -81.15625 L 64.6875 -81.15625 L 64.6875 -82.328125 L 86.4375 -82.328125 Z M 86.4375 -81.15625 "/></g></g></g><g fill="#82120d" fill-opacity="1"><g transform="translate(1011.883847, 1015.290421)"><g><path d="M 68.6875 0 L 7.0625 0 L 7.0625 -1.0625 L 56.453125 -78.921875 L 16.8125 -78.921875 C 14.851562 -78.835938 13.207031 -78.128906 11.875 -76.796875 C 10.539062 -75.460938 9.875 -73.816406 9.875 -71.859375 L 9.875 -69.75 L 8.703125 -69.75 L 8.703125 -84.5625 C 9.878906 -84.09375 11.957031 -83.617188 14.9375 -83.140625 C 17.914062 -82.671875 20.007812 -82.4375 21.21875 -82.4375 C 22.4375 -82.4375 23.046875 -82.4375 23.046875 -82.4375 L 55.75 -82.4375 C 59.59375 -82.4375 62.53125 -82.648438 64.5625 -83.078125 C 66.601562 -83.515625 67.820312 -83.8125 68.21875 -83.96875 L 68.21875 -82.921875 L 17.875 -3.53125 L 55.28125 -3.53125 C 59.4375 -3.53125 62.84375 -4.863281 65.5 -7.53125 C 68.164062 -10.195312 70.128906 -13.722656 71.390625 -18.109375 L 72.5625 -18.109375 Z M 68.6875 0 "/></g></g></g><g fill="#82120d" fill-opacity="1"><g transform="translate(1091.270406, 1015.290421)"><g><path d="M 105.84375 -1.171875 L 107.734375 -1.171875 L 107.734375 0 L 82.203125 0 L 82.203125 -1.0625 L 83.96875 -1.0625 C 85.300781 -1.0625 86.4375 -1.585938 87.375 -2.640625 C 88.320312 -3.703125 88.71875 -4.859375 88.5625 -6.109375 L 83.265625 -65.265625 L 58.5625 -10.34375 C 56.375 -5.5625 55.046875 -1.566406 54.578125 1.640625 L 53.390625 1.640625 L 23.28125 -63.625 L 18.234375 -6.109375 C 18.078125 -4.859375 18.46875 -3.703125 19.40625 -2.640625 C 20.34375 -1.585938 21.441406 -1.0625 22.703125 -1.0625 L 24.578125 -1.0625 L 24.578125 0 L 1.765625 0 L 1.765625 -1.171875 L 3.640625 -1.171875 C 5.835938 -1.171875 7.738281 -1.835938 9.34375 -3.171875 C 10.957031 -4.503906 11.921875 -6.304688 12.234375 -8.578125 L 21.046875 -83.96875 L 22.234375 -83.96875 L 55.046875 -13.046875 L 87.15625 -83.96875 L 88.203125 -83.96875 L 97.265625 -8.578125 C 97.648438 -5.441406 99.21875 -3.25 101.96875 -2 C 103.144531 -1.445312 104.4375 -1.171875 105.84375 -1.171875 Z M 105.84375 -1.171875 "/></g></g></g><g fill="#82120d" fill-opacity="1"><g transform="translate(1203.587566, 1015.290421)"><g><path d="M 84.21875 -1.171875 L 85.15625 -1.171875 L 85.15625 0 L 58.6875 0 L 58.6875 -1.171875 L 59.75 -1.171875 C 61.394531 -1.171875 62.628906 -1.695312 63.453125 -2.75 C 64.273438 -3.8125 64.6875 -4.8125 64.6875 -5.75 C 64.6875 -6.695312 64.53125 -7.640625 64.21875 -8.578125 L 56.6875 -28.578125 L 24.9375 -28.578125 L 17.0625 -8.46875 C 16.75 -7.53125 16.59375 -6.609375 16.59375 -5.703125 C 16.59375 -4.796875 17.003906 -3.8125 17.828125 -2.75 C 18.648438 -1.695312 19.882812 -1.171875 21.53125 -1.171875 L 22.59375 -1.171875 L 22.59375 0 L -1.046875 0 L -1.046875 -1.171875 L 0 -1.171875 C 1.96875 -1.171875 3.890625 -1.796875 5.765625 -3.046875 C 7.648438 -4.304688 9.179688 -6.148438 10.359375 -8.578125 L 36.9375 -71.859375 C 39.832031 -78.210938 41.28125 -82.25 41.28125 -83.96875 L 42.34375 -83.96875 L 73.859375 -8.578125 C 74.960938 -6.148438 76.453125 -4.304688 78.328125 -3.046875 C 80.210938 -1.796875 82.175781 -1.171875 84.21875 -1.171875 Z M 26.359375 -32.109375 L 55.28125 -32.109375 L 41.171875 -69.859375 Z M 26.359375 -32.109375 "/></g></g></g><g transform="matrix(1, 0, 0, 1, 664, 871)"><g clip-path="url(#57fecc3f34)"><g fill="#82120d" fill-opacity="1"><g transform="translate(6.725659, 129.034324)"><g><path d="M 14.46875 -3.34375 C 13.132812 -3.34375 11.957031 -3.675781 10.9375 -4.34375 C 9.613281 -5.488281 8.953125 -6.960938 8.953125 -8.765625 C 8.953125 -9.128906 8.992188 -9.503906 9.078125 -9.890625 C 9.171875 -10.285156 9.25 -10.695312 9.3125 -11.125 C 9.425781 -11.601562 9.585938 -12.113281 9.796875 -12.65625 C 10.015625 -13.195312 10.210938 -13.675781 10.390625 -14.09375 L 10.9375 -14.921875 C 11.238281 -15.398438 11.988281 -16.46875 13.1875 -18.125 C 14.394531 -19.78125 15.664062 -21.390625 17 -22.953125 C 15.425781 -21.804688 13.960938 -20.691406 12.609375 -19.609375 C 11.253906 -18.523438 9.789062 -17.382812 8.21875 -16.1875 C 7.5 -15.632812 6.925781 -15.175781 6.5 -14.8125 C 6.082031 -14.457031 5.515625 -14.039062 4.796875 -13.5625 C 3.703125 -12.78125 2.78125 -12.175781 2.03125 -11.75 C 1.28125 -11.332031 0.570312 -10.972656 -0.09375 -10.671875 C -0.507812 -10.546875 -0.925781 -10.421875 -1.34375 -10.296875 C -1.769531 -10.179688 -2.226562 -10.125 -2.71875 -10.125 C -2.894531 -10.125 -3.070312 -10.140625 -3.25 -10.171875 C -3.4375 -10.203125 -3.648438 -10.242188 -3.890625 -10.296875 C -4.429688 -10.484375 -4.835938 -10.863281 -5.109375 -11.4375 C -5.378906 -12.007812 -5.515625 -12.65625 -5.515625 -13.375 C -5.515625 -13.675781 -5.5 -13.960938 -5.46875 -14.234375 C -5.4375 -14.503906 -5.390625 -14.757812 -5.328125 -15 C -4.785156 -17.175781 -3.765625 -19.164062 -2.265625 -20.96875 C -1.054688 -22.414062 0.175781 -23.800781 1.4375 -25.125 C 2.707031 -26.457031 4.125 -27.632812 5.6875 -28.65625 C 6.78125 -29.375 7.910156 -29.972656 9.078125 -30.453125 C 10.253906 -30.941406 11.445312 -31.335938 12.65625 -31.640625 C 12.957031 -31.753906 13.257812 -31.8125 13.5625 -31.8125 C 13.863281 -31.8125 14.164062 -31.8125 14.46875 -31.8125 C 15.789062 -31.8125 17.023438 -31.507812 18.171875 -30.90625 C 18.710938 -30.550781 19.3125 -30.085938 19.96875 -29.515625 C 20.632812 -28.941406 21.117188 -28.234375 21.421875 -27.390625 L 21.328125 -27.296875 C 22.171875 -27.960938 23 -28.640625 23.8125 -29.328125 C 24.625 -30.023438 25.425781 -30.675781 26.21875 -31.28125 C 26.820312 -31.695312 27.421875 -32.070312 28.015625 -32.40625 C 28.617188 -32.738281 29.3125 -32.84375 30.09375 -32.71875 C 30.820312 -32.414062 31.1875 -31.84375 31.1875 -31 C 31.1875 -30.882812 31.1875 -30.734375 31.1875 -30.546875 C 31.1875 -30.367188 31.15625 -30.21875 31.09375 -30.09375 C 30.789062 -29.5 30.351562 -28.972656 29.78125 -28.515625 C 29.207031 -28.066406 28.679688 -27.601562 28.203125 -27.125 C 27.597656 -26.570312 26.992188 -26.039062 26.390625 -25.53125 C 25.785156 -25.019531 25.15625 -24.523438 24.5 -24.046875 C 23.113281 -22.960938 21.832031 -21.847656 20.65625 -20.703125 C 19.476562 -19.554688 18.257812 -18.289062 17 -16.90625 C 16.507812 -16.363281 16.097656 -15.925781 15.765625 -15.59375 C 15.441406 -15.257812 15.160156 -14.941406 14.921875 -14.640625 C 14.734375 -14.460938 14.5625 -14.28125 14.40625 -14.09375 C 14.257812 -13.914062 14.128906 -13.738281 14.015625 -13.5625 C 13.773438 -13.320312 13.5625 -13.035156 13.375 -12.703125 C 13.195312 -12.367188 12.988281 -12.019531 12.75 -11.65625 C 12.445312 -11.238281 12.171875 -10.742188 11.921875 -10.171875 C 11.679688 -9.597656 11.503906 -9.039062 11.390625 -8.5 C 11.210938 -8.070312 11.125 -7.554688 11.125 -6.953125 C 11.125 -6.171875 11.363281 -5.539062 11.84375 -5.0625 C 12.207031 -4.757812 12.644531 -4.546875 13.15625 -4.421875 C 13.664062 -4.304688 14.160156 -4.25 14.640625 -4.25 C 15.304688 -4.25 15.925781 -4.304688 16.5 -4.421875 C 17.070312 -4.546875 17.566406 -4.695312 17.984375 -4.875 C 19.304688 -5.363281 20.359375 -5.816406 21.140625 -6.234375 C 21.929688 -6.660156 23.050781 -7.265625 24.5 -8.046875 C 25.28125 -8.410156 25.863281 -8.710938 26.25 -8.953125 C 26.644531 -9.191406 27.113281 -9.460938 27.65625 -9.765625 C 28.132812 -10.066406 28.859375 -10.503906 29.828125 -11.078125 C 30.796875 -11.648438 31.835938 -12.28125 32.953125 -12.96875 C 34.066406 -13.664062 35.070312 -14.3125 35.96875 -14.90625 C 36.875 -15.507812 37.507812 -15.9375 37.875 -16.1875 C 39.082031 -17.03125 40.347656 -17.929688 41.671875 -18.890625 C 42.992188 -19.859375 44.316406 -20.820312 45.640625 -21.78125 C 45.941406 -22.019531 46.273438 -22.273438 46.640625 -22.546875 C 47.003906 -22.816406 47.304688 -22.925781 47.546875 -22.875 C 47.847656 -22.625 47.90625 -22.351562 47.71875 -22.0625 L 46.90625 -21.421875 C 45.582031 -20.453125 44.09375 -19.363281 42.4375 -18.15625 C 40.78125 -16.957031 39.140625 -15.785156 37.515625 -14.640625 C 35.890625 -13.492188 34.441406 -12.53125 33.171875 -11.75 C 31.367188 -10.664062 29.53125 -9.609375 27.65625 -8.578125 C 25.789062 -7.554688 23.832031 -6.503906 21.78125 -5.421875 C 21.363281 -5.242188 20.957031 -5.046875 20.5625 -4.828125 C 20.164062 -4.617188 19.726562 -4.457031 19.25 -4.34375 C 18.53125 -4.101562 17.765625 -3.875 16.953125 -3.65625 C 16.140625 -3.445312 15.3125 -3.34375 14.46875 -3.34375 Z M -2.171875 -11.125 C -1.984375 -11.125 -1.648438 -11.179688 -1.171875 -11.296875 C -0.0234375 -11.722656 1.160156 -12.328125 2.390625 -13.109375 C 3.628906 -13.890625 4.726562 -14.671875 5.6875 -15.453125 C 7.195312 -16.660156 8.597656 -17.757812 9.890625 -18.75 C 11.191406 -19.75 12.445312 -20.703125 13.65625 -21.609375 C 14.675781 -22.328125 15.710938 -23.078125 16.765625 -23.859375 C 17.816406 -24.640625 18.914062 -25.515625 20.0625 -26.484375 C 19.820312 -26.960938 19.25 -27.304688 18.34375 -27.515625 C 17.445312 -27.734375 16.816406 -27.78125 16.453125 -27.65625 C 15.429688 -27.476562 14.40625 -27.253906 13.375 -26.984375 C 12.351562 -26.710938 11.359375 -26.304688 10.390625 -25.765625 C 8.046875 -24.492188 5.800781 -22.832031 3.65625 -20.78125 C 1.519531 -18.738281 -0.238281 -16.929688 -1.625 -15.359375 C -2.226562 -14.765625 -2.648438 -14.191406 -2.890625 -13.640625 C -3.128906 -13.097656 -3.25 -12.617188 -3.25 -12.203125 C -3.25 -11.484375 -2.890625 -11.125 -2.171875 -11.125 Z M -2.171875 -11.125 "/></g></g></g><g fill="#82120d" fill-opacity="1"><g transform="translate(53.543638, 129.034324)"><g><path d="M 18.078125 -0.625 C 17.535156 -0.625 16.992188 -0.65625 16.453125 -0.71875 C 15.910156 -0.78125 15.398438 -0.875 14.921875 -1 C 14.015625 -1.414062 13.394531 -1.941406 13.0625 -2.578125 C 12.726562 -3.210938 12.5625 -3.890625 12.5625 -4.609375 C 12.5625 -5.515625 12.726562 -6.414062 13.0625 -7.3125 C 13.394531 -8.21875 13.679688 -8.882812 13.921875 -9.3125 C 14.523438 -10.457031 15.003906 -11.316406 15.359375 -11.890625 C 15.722656 -12.460938 16.207031 -13.140625 16.8125 -13.921875 C 17.414062 -14.765625 18.03125 -15.59375 18.65625 -16.40625 C 19.289062 -17.21875 19.910156 -18.046875 20.515625 -18.890625 C 20.703125 -19.128906 20.851562 -19.367188 20.96875 -19.609375 C 21.09375 -19.847656 21.242188 -20.117188 21.421875 -20.421875 C 21.960938 -21.328125 22.234375 -22.019531 22.234375 -22.5 C 22.234375 -23.34375 21.570312 -23.765625 20.25 -23.765625 C 19.164062 -23.765625 17.851562 -23.523438 16.3125 -23.046875 C 14.78125 -22.566406 13.5 -22.113281 12.46875 -21.6875 C 10.96875 -20.96875 9.429688 -20.15625 7.859375 -19.25 C 6.296875 -18.34375 5.300781 -17.742188 4.875 -17.453125 C 3.726562 -16.722656 2.460938 -15.90625 1.078125 -15 C -0.304688 -14.101562 -1.507812 -13.234375 -2.53125 -12.390625 C -3.132812 -12.023438 -3.914062 -11.421875 -4.875 -10.578125 C -5.84375 -9.734375 -7.019531 -8.617188 -8.40625 -7.234375 C -9.070312 -6.691406 -9.550781 -6.253906 -9.84375 -5.921875 C -10.144531 -5.585938 -10.507812 -5.269531 -10.9375 -4.96875 C -11.0625 -4.90625 -11.226562 -4.84375 -11.4375 -4.78125 C -11.644531 -4.726562 -11.8125 -4.671875 -11.9375 -4.609375 C -12.78125 -4.785156 -13.351562 -5.296875 -13.65625 -6.140625 C -13.65625 -6.265625 -13.664062 -6.414062 -13.6875 -6.59375 C -13.71875 -6.78125 -13.707031 -6.898438 -13.65625 -6.953125 C -13.351562 -8.097656 -12.957031 -9.09375 -12.46875 -9.9375 C -11.019531 -11.75 -9.726562 -13.257812 -8.59375 -14.46875 C -7.925781 -15.125 -7.242188 -15.84375 -6.546875 -16.625 C -5.859375 -17.414062 -5.003906 -18.351562 -3.984375 -19.4375 L -1.171875 -22.328125 C -0.691406 -22.804688 -0.242188 -23.269531 0.171875 -23.71875 C 0.597656 -24.175781 1.023438 -24.613281 1.453125 -25.03125 C 2.472656 -26.125 3.507812 -27.179688 4.5625 -28.203125 C 5.613281 -29.222656 6.535156 -30.125 7.328125 -30.90625 C 8.222656 -31.75 9.109375 -32.53125 9.984375 -33.25 C 10.859375 -33.976562 11.78125 -34.675781 12.75 -35.34375 C 13.53125 -35.882812 14.070312 -36.210938 14.375 -36.328125 C 14.675781 -36.453125 15.304688 -36.515625 16.265625 -36.515625 C 17.296875 -36.097656 17.8125 -35.46875 17.8125 -34.625 C 18.113281 -33.957031 17.828125 -33.273438 16.953125 -32.578125 C 16.078125 -31.890625 15.15625 -31.035156 14.1875 -30.015625 C 13.707031 -29.585938 13.179688 -29.144531 12.609375 -28.6875 C 12.035156 -28.238281 11.507812 -27.773438 11.03125 -27.296875 L 8.140625 -24.59375 C 7.898438 -24.40625 7.703125 -24.207031 7.546875 -24 C 7.398438 -23.789062 7.203125 -23.566406 6.953125 -23.328125 C 5.453125 -21.878906 3.960938 -20.398438 2.484375 -18.890625 C 1.003906 -17.378906 -0.453125 -15.84375 -1.890625 -14.28125 L -2.625 -13.5625 C -2.6875 -13.5 -2.988281 -13.238281 -3.53125 -12.78125 C -4.070312 -12.332031 -4.398438 -12.050781 -4.515625 -11.9375 C -1.328125 -14.164062 1.347656 -16.015625 3.515625 -17.484375 C 5.691406 -18.960938 6.8125 -19.703125 6.875 -19.703125 C 8.613281 -20.785156 10.414062 -21.75 12.28125 -22.59375 C 14.15625 -23.4375 16.117188 -24.101562 18.171875 -24.59375 C 18.648438 -24.707031 19.21875 -24.804688 19.875 -24.890625 C 20.539062 -24.984375 21.117188 -25.03125 21.609375 -25.03125 C 22.503906 -25.03125 23.238281 -24.925781 23.8125 -24.71875 C 24.382812 -24.507812 24.941406 -23.984375 25.484375 -23.140625 C 25.734375 -22.835938 25.859375 -22.296875 25.859375 -21.515625 C 25.859375 -20.734375 25.734375 -20.070312 25.484375 -19.53125 C 24.941406 -18.144531 24.382812 -17 23.8125 -16.09375 C 23.238281 -15.1875 22.53125 -14.128906 21.6875 -12.921875 C 20.90625 -11.898438 20.164062 -11.007812 19.46875 -10.25 C 18.78125 -9.5 18.164062 -8.796875 17.625 -8.140625 C 17.207031 -7.535156 16.832031 -6.929688 16.5 -6.328125 C 16.164062 -5.722656 15.9375 -5 15.8125 -4.15625 C 15.8125 -3.914062 15.859375 -3.550781 15.953125 -3.0625 C 16.046875 -2.582031 16.363281 -2.164062 16.90625 -1.8125 C 17.207031 -1.75 17.492188 -1.703125 17.765625 -1.671875 C 18.035156 -1.640625 18.320312 -1.625 18.625 -1.625 C 19.40625 -1.625 20.1875 -1.695312 20.96875 -1.84375 C 21.75 -2 22.441406 -2.164062 23.046875 -2.34375 C 24.253906 -2.707031 25.414062 -3.128906 26.53125 -3.609375 C 27.644531 -4.097656 28.773438 -4.613281 29.921875 -5.15625 C 31.367188 -5.875 32.960938 -6.710938 34.703125 -7.671875 C 36.453125 -8.640625 37.929688 -9.515625 39.140625 -10.296875 C 41.242188 -11.566406 42.914062 -12.679688 44.15625 -13.640625 C 45.394531 -14.609375 46.945312 -15.753906 48.8125 -17.078125 C 49.769531 -17.867188 50.773438 -18.640625 51.828125 -19.390625 C 52.890625 -20.140625 53.929688 -20.90625 54.953125 -21.6875 C 55.441406 -22.050781 55.832031 -22.320312 56.125 -22.5 C 56.425781 -22.6875 56.703125 -22.8125 56.953125 -22.875 L 57.03125 -22.875 C 57.632812 -22.875 57.722656 -22.675781 57.296875 -22.28125 C 56.878906 -21.882812 56.351562 -21.472656 55.71875 -21.046875 C 55.09375 -20.628906 54.71875 -20.363281 54.59375 -20.25 C 53.445312 -19.40625 52.421875 -18.617188 51.515625 -17.890625 C 50.617188 -17.171875 49.476562 -16.300781 48.09375 -15.28125 C 45.5625 -13.40625 43.101562 -11.65625 40.71875 -10.03125 C 38.34375 -8.40625 35.738281 -6.898438 32.90625 -5.515625 C 31.394531 -4.734375 29.8125 -3.992188 28.15625 -3.296875 C 26.5 -2.609375 24.859375 -1.992188 23.234375 -1.453125 C 21.421875 -0.898438 19.703125 -0.625 18.078125 -0.625 Z M 18.078125 -0.625 "/></g></g></g><g fill="#82120d" fill-opacity="1"><g transform="translate(109.761358, 129.034324)"><g><path d="M 106.578125 -80.265625 C 106.867188 -80.023438 107.085938 -79.753906 107.234375 -79.453125 C 107.390625 -79.148438 107.5 -78.878906 107.5625 -78.640625 C 107.5 -76.585938 106.957031 -74.835938 105.9375 -73.390625 C 104.914062 -71.953125 103.800781 -70.597656 102.59375 -69.328125 C 101.6875 -68.367188 100.722656 -67.476562 99.703125 -66.65625 C 98.679688 -65.84375 97.71875 -64.988281 96.8125 -64.09375 C 95.539062 -63.0625 94.554688 -62.226562 93.859375 -61.59375 C 93.171875 -60.96875 92.195312 -60.140625 90.9375 -59.109375 C 90.507812 -58.691406 89.875 -58.238281 89.03125 -57.75 C 88.1875 -57.269531 87.523438 -56.820312 87.046875 -56.40625 C 86.140625 -55.738281 85.203125 -55.117188 84.234375 -54.546875 C 83.273438 -53.972656 82.316406 -53.382812 81.359375 -52.78125 L 79.09375 -51.34375 C 77.40625 -50.4375 75.671875 -49.578125 73.890625 -48.765625 C 72.117188 -47.953125 70.359375 -47.125 68.609375 -46.28125 C 66.191406 -45.257812 63.71875 -44.398438 61.1875 -43.703125 C 58.65625 -43.015625 56.15625 -42.304688 53.6875 -41.578125 C 53.082031 -41.460938 52.507812 -41.3125 51.96875 -41.125 C 51.425781 -40.945312 50.851562 -40.796875 50.25 -40.671875 C 49.226562 -40.429688 48.175781 -40.207031 47.09375 -40 C 46.007812 -39.789062 44.957031 -39.625 43.9375 -39.5 C 42.601562 -39.320312 41.394531 -38.75 40.3125 -37.78125 L 37.515625 -35.34375 C 36.785156 -34.738281 36.070312 -34.132812 35.375 -33.53125 C 34.6875 -32.925781 34.015625 -32.296875 33.359375 -31.640625 C 32.390625 -30.734375 31.453125 -29.828125 30.546875 -28.921875 C 29.648438 -28.015625 28.75 -27.050781 27.84375 -26.03125 C 26.8125 -24.882812 25.769531 -23.753906 24.71875 -22.640625 C 23.664062 -21.523438 22.628906 -20.363281 21.609375 -19.15625 C 19.671875 -16.925781 18.070312 -14.800781 16.8125 -12.78125 C 15.550781 -10.769531 14.921875 -8.554688 14.921875 -6.140625 C 14.921875 -4.992188 15.234375 -4.03125 15.859375 -3.25 C 16.492188 -2.46875 17.441406 -2.078125 18.703125 -2.078125 C 20.515625 -2.078125 22.488281 -2.4375 24.625 -3.15625 C 26.769531 -3.882812 28.878906 -4.789062 30.953125 -5.875 C 33.035156 -6.957031 34.9375 -8.039062 36.65625 -9.125 C 38.375 -10.207031 39.710938 -11.082031 40.671875 -11.75 C 41.816406 -12.53125 43.019531 -13.359375 44.28125 -14.234375 C 45.550781 -15.109375 46.757812 -16.03125 47.90625 -17 C 49.113281 -17.894531 50.394531 -18.851562 51.75 -19.875 C 53.101562 -20.90625 54.265625 -21.753906 55.234375 -22.421875 C 55.828125 -22.773438 56.273438 -22.925781 56.578125 -22.875 C 56.765625 -22.875 56.859375 -22.8125 56.859375 -22.6875 C 56.859375 -22.507812 56.492188 -22.148438 55.765625 -21.609375 C 53.296875 -19.796875 50.945312 -18 48.71875 -16.21875 C 46.488281 -14.445312 44.078125 -12.71875 41.484375 -11.03125 C 40.460938 -10.363281 39.0625 -9.472656 37.28125 -8.359375 C 35.507812 -7.242188 33.550781 -6.113281 31.40625 -4.96875 C 29.269531 -3.820312 27.113281 -2.859375 24.9375 -2.078125 C 22.769531 -1.296875 20.785156 -0.90625 18.984375 -0.90625 C 16.992188 -0.90625 15.378906 -1.503906 14.140625 -2.703125 C 12.910156 -3.910156 12.296875 -5.421875 12.296875 -7.234375 C 12.296875 -7.535156 12.3125 -7.847656 12.34375 -8.171875 C 12.375 -8.503906 12.414062 -8.820312 12.46875 -9.125 C 13.675781 -13.945312 15.816406 -18.195312 18.890625 -21.875 L 20.15625 -23.5 C 19.914062 -23.257812 19.675781 -23.019531 19.4375 -22.78125 C 19.195312 -22.539062 18.863281 -22.238281 18.4375 -21.875 L 17.8125 -21.234375 C 15.21875 -18.890625 12.878906 -16.84375 10.796875 -15.09375 C 8.722656 -13.34375 6.539062 -11.535156 4.25 -9.671875 C 3.519531 -9.066406 2.78125 -8.550781 2.03125 -8.125 C 1.28125 -7.707031 0.480469 -7.316406 -0.359375 -6.953125 C -0.898438 -6.710938 -1.535156 -6.59375 -2.265625 -6.59375 C -3.109375 -6.59375 -3.921875 -6.835938 -4.703125 -7.328125 C -5.179688 -7.804688 -5.523438 -8.359375 -5.734375 -8.984375 C -5.953125 -9.617188 -6.0625 -10.269531 -6.0625 -10.9375 C -6.0625 -11.175781 -6.046875 -11.414062 -6.015625 -11.65625 C -5.984375 -11.894531 -5.9375 -12.140625 -5.875 -12.390625 C -5.632812 -13.710938 -5.257812 -14.972656 -4.75 -16.171875 C -4.238281 -17.378906 -3.648438 -18.523438 -2.984375 -19.609375 C -1.960938 -21.117188 -0.933594 -22.503906 0.09375 -23.765625 C 1 -24.910156 1.960938 -26.054688 2.984375 -27.203125 C 3.460938 -27.742188 3.972656 -28.269531 4.515625 -28.78125 C 5.054688 -29.300781 5.628906 -29.800781 6.234375 -30.28125 C 6.898438 -30.820312 7.546875 -31.378906 8.171875 -31.953125 C 8.804688 -32.523438 9.457031 -33.019531 10.125 -33.4375 C 11.75 -34.53125 13.738281 -35.523438 16.09375 -36.421875 C 16.632812 -36.660156 17.191406 -36.8125 17.765625 -36.875 C 18.335938 -36.9375 18.863281 -36.96875 19.34375 -36.96875 C 21.09375 -36.96875 22.390625 -36.695312 23.234375 -36.15625 C 23.835938 -35.738281 24.53125 -35.164062 25.3125 -34.4375 C 26.09375 -33.71875 26.632812 -32.664062 26.9375 -31.28125 L 33.171875 -37.78125 C 33.234375 -37.90625 33.414062 -38.070312 33.71875 -38.28125 C 34.019531 -38.488281 34.203125 -38.65625 34.265625 -38.78125 L 37.78125 -41.9375 C 39.101562 -43.269531 40.472656 -44.519531 41.890625 -45.6875 C 43.304688 -46.863281 44.707031 -48.054688 46.09375 -49.265625 C 47.601562 -50.523438 49.140625 -51.769531 50.703125 -53 C 52.273438 -54.238281 53.84375 -55.460938 55.40625 -56.671875 C 57.21875 -58.054688 59.085938 -59.378906 61.015625 -60.640625 C 62.941406 -61.910156 64.867188 -63.179688 66.796875 -64.453125 C 67.398438 -64.867188 68.015625 -65.242188 68.640625 -65.578125 C 69.273438 -65.910156 69.894531 -66.285156 70.5 -66.703125 C 72.25 -67.734375 73.96875 -68.710938 75.65625 -69.640625 C 77.34375 -70.578125 79 -71.5 80.625 -72.40625 C 83.21875 -73.851562 85.78125 -75.175781 88.3125 -76.375 C 90.84375 -77.582031 93.40625 -78.695312 96 -79.71875 C 97.5625 -80.257812 99.125 -80.710938 100.6875 -81.078125 C 101.050781 -81.140625 101.414062 -81.1875 101.78125 -81.21875 C 102.144531 -81.25 102.503906 -81.265625 102.859375 -81.265625 C 104.191406 -81.265625 105.429688 -80.929688 106.578125 -80.265625 Z M 105.578125 -75.5625 C 105.691406 -75.800781 105.851562 -76.160156 106.0625 -76.640625 C 106.28125 -77.128906 106.269531 -77.582031 106.03125 -78 C 105.664062 -78.125 105.394531 -78.1875 105.21875 -78.1875 C 104.550781 -78.1875 103.8125 -78.019531 103 -77.6875 C 102.1875 -77.351562 101.539062 -77.128906 101.0625 -77.015625 C 100.09375 -76.648438 99.09375 -76.269531 98.0625 -75.875 C 97.039062 -75.488281 96.050781 -75.054688 95.09375 -74.578125 C 94.1875 -74.148438 93.28125 -73.679688 92.375 -73.171875 C 91.46875 -72.660156 90.597656 -72.164062 89.765625 -71.6875 L 83.609375 -68.515625 C 82.828125 -68.097656 82.03125 -67.660156 81.21875 -67.203125 C 80.40625 -66.753906 79.578125 -66.285156 78.734375 -65.796875 C 77.765625 -65.253906 76.8125 -64.710938 75.875 -64.171875 C 74.945312 -63.628906 74 -63.054688 73.03125 -62.453125 C 72.070312 -61.910156 71.125 -61.320312 70.1875 -60.6875 C 69.25 -60.0625 68.300781 -59.445312 67.34375 -58.84375 L 62.015625 -55.140625 C 61.222656 -54.535156 60.4375 -53.976562 59.65625 -53.46875 C 58.875 -52.957031 58.09375 -52.398438 57.3125 -51.796875 C 56.519531 -51.191406 55.71875 -50.570312 54.90625 -49.9375 C 54.09375 -49.300781 53.265625 -48.65625 52.421875 -48 C 51.398438 -47.15625 50.347656 -46.328125 49.265625 -45.515625 C 48.179688 -44.703125 47.125 -43.875 46.09375 -43.03125 C 45.789062 -42.789062 45.472656 -42.519531 45.140625 -42.21875 C 44.816406 -41.914062 44.535156 -41.519531 44.296875 -41.03125 C 44.898438 -41.03125 45.484375 -41.0625 46.046875 -41.125 C 46.617188 -41.1875 47.207031 -41.28125 47.8125 -41.40625 C 49.988281 -41.757812 52.128906 -42.207031 54.234375 -42.75 C 56.335938 -43.289062 58.476562 -43.925781 60.65625 -44.65625 C 61.070312 -44.769531 61.488281 -44.898438 61.90625 -45.046875 C 62.332031 -45.203125 62.757812 -45.34375 63.1875 -45.46875 C 64.875 -46.070312 66.546875 -46.75 68.203125 -47.5 C 69.859375 -48.25 71.46875 -48.988281 73.03125 -49.71875 C 74.957031 -50.5625 76.75 -51.460938 78.40625 -52.421875 C 80.070312 -53.390625 81.867188 -54.535156 83.796875 -55.859375 C 83.910156 -55.921875 84.023438 -55.992188 84.140625 -56.078125 C 84.265625 -56.171875 84.390625 -56.25 84.515625 -56.3125 C 86.078125 -57.28125 87.71875 -58.425781 89.4375 -59.75 C 91.15625 -61.070312 92.769531 -62.394531 94.28125 -63.71875 C 95.539062 -64.863281 96.785156 -65.945312 98.015625 -66.96875 C 99.253906 -68 100.445312 -69.085938 101.59375 -70.234375 C 102.320312 -70.953125 103.0625 -71.78125 103.8125 -72.71875 C 104.5625 -73.65625 105.148438 -74.601562 105.578125 -75.5625 Z M 23.5 -27.75 C 23.800781 -27.988281 24.117188 -28.273438 24.453125 -28.609375 C 24.785156 -28.941406 25.253906 -29.347656 25.859375 -29.828125 C 25.796875 -30.253906 25.65625 -30.765625 25.4375 -31.359375 C 25.226562 -31.960938 24.613281 -32.75 23.59375 -33.71875 C 23.289062 -34.019531 22.78125 -34.171875 22.0625 -34.171875 C 21.15625 -34.171875 20.160156 -33.941406 19.078125 -33.484375 C 17.992188 -33.035156 17.085938 -32.570312 16.359375 -32.09375 C 15.148438 -31.25 14.140625 -30.507812 13.328125 -29.875 C 12.515625 -29.238281 11.71875 -28.59375 10.9375 -27.9375 C 10.695312 -27.75 10.457031 -27.550781 10.21875 -27.34375 C 9.976562 -27.132812 9.707031 -26.878906 9.40625 -26.578125 C 8.195312 -25.609375 7.109375 -24.597656 6.140625 -23.546875 C 5.179688 -22.492188 4.21875 -21.394531 3.25 -20.25 L 1.265625 -17.71875 C 0.597656 -16.875 -0.00390625 -16.070312 -0.546875 -15.3125 C -1.085938 -14.5625 -1.597656 -13.707031 -2.078125 -12.75 C -2.503906 -11.601562 -2.71875 -10.578125 -2.71875 -9.671875 C -2.71875 -9.128906 -2.65625 -8.769531 -2.53125 -8.59375 C -2.351562 -8.226562 -1.992188 -8.046875 -1.453125 -8.046875 C -0.960938 -8.046875 -0.507812 -8.164062 -0.09375 -8.40625 C 0.507812 -8.707031 1.003906 -8.976562 1.390625 -9.21875 C 1.785156 -9.457031 2.375 -9.847656 3.15625 -10.390625 C 4.550781 -11.421875 5.742188 -12.367188 6.734375 -13.234375 C 7.722656 -14.109375 8.789062 -15 9.9375 -15.90625 C 10.601562 -16.382812 11.207031 -16.832031 11.75 -17.25 C 12.289062 -17.675781 12.800781 -18.132812 13.28125 -18.625 C 15.03125 -20.1875 16.75 -21.71875 18.4375 -23.21875 C 20.125 -24.726562 21.8125 -26.238281 23.5 -27.75 Z M 23.5 -27.75 "/></g></g></g></g></g></svg>