<svg xmlns="http://www.w3.org/2000/svg" width="1080" height="1080" viewBox="0 0 1080 1080">
  <defs>
    <linearGradient id="g2" x1="0" y1="0" x2="1" y2="1">
      <stop offset="0" stop-color="#7a3b2e"/>
      <stop offset="1" stop-color="#e6a157"/>
    </linearGradient>
    <radialGradient id="v2" cx="0.5" cy="0.42" r="0.75">
      <stop offset="0.55" stop-color="#000000" stop-opacity="0"/>
      <stop offset="1" stop-color="#000000" stop-opacity="0.45"/>
    </radialGradient>
  </defs>
  <rect width="1080" height="1080" fill="url(#g2)"/>
  <circle cx="954" cy="325" r="31" fill="#ffffff" opacity="0.103"/><circle cx="1022" cy="131" r="9" fill="#ffffff" opacity="0.085"/><circle cx="1005" cy="760" r="12" fill="#ffffff" opacity="0.122"/><circle cx="931" cy="758" r="11" fill="#ffffff" opacity="0.139"/><circle cx="305" cy="552" r="19" fill="#ffffff" opacity="0.079"/><circle cx="156" cy="887" r="17" fill="#ffffff" opacity="0.092"/><circle cx="388" cy="912" r="8" fill="#ffffff" opacity="0.093"/><circle cx="29" cy="212" r="26" fill="#ffffff" opacity="0.080"/><circle cx="346" cy="494" r="16" fill="#ffffff" opacity="0.126"/><circle cx="45" cy="426" r="12" fill="#ffffff" opacity="0.133"/><circle cx="913" cy="912" r="20" fill="#ffffff" opacity="0.056"/><circle cx="136" cy="302" r="25" fill="#ffffff" opacity="0.089"/><circle cx="622" cy="19" r="15" fill="#ffffff" opacity="0.124"/><circle cx="437" cy="133" r="19" fill="#ffffff" opacity="0.072"/><circle cx="247" cy="1029" r="10" fill="#ffffff" opacity="0.048"/><circle cx="679" cy="413" r="9" fill="#ffffff" opacity="0.134"/><circle cx="400" cy="753" r="14" fill="#ffffff" opacity="0.095"/><circle cx="317" cy="156" r="15" fill="#ffffff" opacity="0.070"/>
  <rect width="1080" height="1080" fill="url(#v2)"/>
  <text x="540" y="496.8" font-size="216" text-anchor="middle" dominant-baseline="middle">🌸</text>
  <text x="540" y="669.6" font-family="Georgia, serif" font-size="59" fill="#ffffff" fill-opacity="0.95" text-anchor="middle" font-style="italic">Roka Vibes</text>
  <text x="540" y="745.1999999999999" font-family="Helvetica, Arial, sans-serif" font-size="35" fill="#ffffff" fill-opacity="0.7" text-anchor="middle" letter-spacing="2">IT BEGINS</text>
</svg>