<svg xmlns="http://www.w3.org/2000/svg" width="1080" height="1080" viewBox="0 0 1080 1080">
  <defs>
    <linearGradient id="g3" x1="0" y1="0" x2="1" y2="1">
      <stop offset="0" stop-color="#1f3a5f"/>
      <stop offset="1" stop-color="#5b8fb9"/>
    </linearGradient>
    <radialGradient id="v3" cx="0.5" cy="0.42" r="0.75">
      <stop offset="0.55" stop-color="#000000" stop-opacity="0"/>
      <stop offset="1" stop-color="#000000" stop-opacity="0.45"/>
    </radialGradient>
  </defs>
  <rect width="1080" height="1080" fill="url(#g3)"/>
  <circle cx="777" cy="104" r="11" fill="#ffffff" opacity="0.098"/><circle cx="10" cy="703" r="31" fill="#ffffff" opacity="0.065"/><circle cx="986" cy="311" r="12" fill="#ffffff" opacity="0.079"/><circle cx="1050" cy="434" r="19" fill="#ffffff" opacity="0.083"/><circle cx="150" cy="740" r="8" fill="#ffffff" opacity="0.127"/><circle cx="353" cy="374" r="7" fill="#ffffff" opacity="0.125"/><circle cx="684" cy="4" r="24" fill="#ffffff" opacity="0.076"/><circle cx="251" cy="257" r="31" fill="#ffffff" opacity="0.052"/><circle cx="1000" cy="878" r="9" fill="#ffffff" opacity="0.057"/><circle cx="398" cy="615" r="16" fill="#ffffff" opacity="0.043"/><circle cx="1031" cy="1054" r="12" fill="#ffffff" opacity="0.107"/><circle cx="407" cy="382" r="10" fill="#ffffff" opacity="0.140"/><circle cx="911" cy="825" r="13" fill="#ffffff" opacity="0.051"/><circle cx="1052" cy="611" r="21" fill="#ffffff" opacity="0.058"/><circle cx="374" cy="686" r="27" fill="#ffffff" opacity="0.041"/><circle cx="785" cy="276" r="32" fill="#ffffff" opacity="0.066"/><circle cx="1032" cy="728" r="23" fill="#ffffff" opacity="0.072"/><circle cx="541" cy="349" r="26" fill="#ffffff" opacity="0.128"/>
  <rect width="1080" height="1080" fill="url(#v3)"/>
  <text x="540" y="496.8" font-size="216" text-anchor="middle" dominant-baseline="middle">🌿</text>
  <text x="540" y="669.6" font-family="Georgia, serif" font-size="59" fill="#ffffff" fill-opacity="0.95" text-anchor="middle" font-style="italic">Mehendi Glow</text>
  <text x="540" y="745.1999999999999" font-family="Helvetica, Arial, sans-serif" font-size="35" fill="#ffffff" fill-opacity="0.7" text-anchor="middle" letter-spacing="2">RANG &amp; RAUNAK</text>
</svg>