<svg xmlns="http://www.w3.org/2000/svg" width="1080" height="1080" viewBox="0 0 1080 1080">
  <defs>
    <linearGradient id="g5" x1="0" y1="0" x2="1" y2="1">
      <stop offset="0" stop-color="#2d4739"/>
      <stop offset="1" stop-color="#7bb274"/>
    </linearGradient>
    <radialGradient id="v5" cx="0.5" cy="0.42" r="0.75">
      <stop offset="0.55" stop-color="#000000" stop-opacity="0"/>
      <stop offset="1" stop-color="#000000" stop-opacity="0.45"/>
    </radialGradient>
  </defs>
  <rect width="1080" height="1080" fill="url(#g5)"/>
  <circle cx="422" cy="742" r="22" fill="#ffffff" opacity="0.087"/><circle cx="147" cy="765" r="24" fill="#ffffff" opacity="0.126"/><circle cx="947" cy="491" r="13" fill="#ffffff" opacity="0.094"/><circle cx="209" cy="866" r="9" fill="#ffffff" opacity="0.072"/><circle cx="920" cy="36" r="12" fill="#ffffff" opacity="0.125"/><circle cx="747" cy="428" r="11" fill="#ffffff" opacity="0.091"/><circle cx="196" cy="349" r="30" fill="#ffffff" opacity="0.042"/><circle cx="694" cy="346" r="15" fill="#ffffff" opacity="0.097"/><circle cx="148" cy="565" r="20" fill="#ffffff" opacity="0.118"/><circle cx="23" cy="993" r="24" fill="#ffffff" opacity="0.064"/><circle cx="188" cy="257" r="21" fill="#ffffff" opacity="0.110"/><circle cx="948" cy="542" r="30" fill="#ffffff" opacity="0.042"/><circle cx="410" cy="277" r="8" fill="#ffffff" opacity="0.104"/><circle cx="122" cy="487" r="25" fill="#ffffff" opacity="0.131"/><circle cx="628" cy="1079" r="8" fill="#ffffff" opacity="0.128"/><circle cx="997" cy="1" r="26" fill="#ffffff" opacity="0.130"/><circle cx="135" cy="677" r="15" fill="#ffffff" opacity="0.126"/><circle cx="989" cy="736" r="22" fill="#ffffff" opacity="0.043"/>
  <rect width="1080" height="1080" fill="url(#v5)"/>
  <text x="540" y="496.8" font-size="216" text-anchor="middle" dominant-baseline="middle">✨</text>
  <text x="540" y="669.6" font-family="Georgia, serif" font-size="59" fill="#ffffff" fill-opacity="0.95" text-anchor="middle" font-style="italic">Pre-Wedding</text>
  <text x="540" y="745.1999999999999" font-family="Helvetica, Arial, sans-serif" font-size="35" fill="#ffffff" fill-opacity="0.7" text-anchor="middle" letter-spacing="2">CAUGHT IN LOVE</text>
</svg>