<svg xmlns="http://www.w3.org/2000/svg" width="1080" height="1080" viewBox="0 0 1080 1080">
  <defs>
    <linearGradient id="g4" x1="0" y1="0" x2="1" y2="1">
      <stop offset="0" stop-color="#5e2750"/>
      <stop offset="1" stop-color="#c06c84"/>
    </linearGradient>
    <radialGradient id="v4" cx="0.5" cy="0.42" r="0.75">
      <stop offset="0.55" stop-color="#000000" stop-opacity="0"/>
      <stop offset="1" stop-color="#000000" stop-opacity="0.45"/>
    </radialGradient>
  </defs>
  <rect width="1080" height="1080" fill="url(#g4)"/>
  <circle cx="599" cy="963" r="17" fill="#ffffff" opacity="0.092"/><circle cx="78" cy="194" r="27" fill="#ffffff" opacity="0.046"/><circle cx="966" cy="941" r="13" fill="#ffffff" opacity="0.137"/><circle cx="90" cy="110" r="27" fill="#ffffff" opacity="0.128"/><circle cx="1075" cy="928" r="23" fill="#ffffff" opacity="0.076"/><circle cx="550" cy="941" r="22" fill="#ffffff" opacity="0.058"/><circle cx="980" cy="177" r="14" fill="#ffffff" opacity="0.059"/><circle cx="472" cy="302" r="10" fill="#ffffff" opacity="0.125"/><circle cx="574" cy="182" r="27" fill="#ffffff" opacity="0.088"/><circle cx="751" cy="804" r="20" fill="#ffffff" opacity="0.054"/><circle cx="70" cy="115" r="30" fill="#ffffff" opacity="0.059"/><circle cx="677" cy="462" r="20" fill="#ffffff" opacity="0.091"/><circle cx="121" cy="551" r="10" fill="#ffffff" opacity="0.078"/><circle cx="587" cy="9" r="23" fill="#ffffff" opacity="0.045"/><circle cx="501" cy="342" r="17" fill="#ffffff" opacity="0.135"/><circle cx="891" cy="138" r="29" fill="#ffffff" opacity="0.098"/><circle cx="584" cy="703" r="6" fill="#ffffff" opacity="0.049"/><circle cx="765" cy="543" r="11" fill="#ffffff" opacity="0.086"/>
  <rect width="1080" height="1080" fill="url(#v4)"/>
  <text x="540" y="496.8" font-size="216" text-anchor="middle" dominant-baseline="middle">🎶</text>
  <text x="540" y="669.6" font-family="Georgia, serif" font-size="59" fill="#ffffff" fill-opacity="0.95" text-anchor="middle" font-style="italic">Sangeet Night</text>
  <text x="540" y="745.1999999999999" font-family="Helvetica, Arial, sans-serif" font-size="35" fill="#ffffff" fill-opacity="0.7" text-anchor="middle" letter-spacing="2">NAACH LO</text>
</svg>