<svg xmlns="http://www.w3.org/2000/svg" width="1080" height="1080" viewBox="0 0 1080 1080">
  <defs>
    <linearGradient id="g6" x1="0" y1="0" x2="1" y2="1">
      <stop offset="0" stop-color="#4a2545"/>
      <stop offset="1" stop-color="#f67280"/>
    </linearGradient>
    <radialGradient id="v6" cx="0.5" cy="0.42" r="0.75">
      <stop offset="0.55" stop-color="#000000" stop-opacity="0"/>
      <stop offset="1" stop-color="#000000" stop-opacity="0.45"/>
    </radialGradient>
  </defs>
  <rect width="1080" height="1080" fill="url(#g6)"/>
  <circle cx="245" cy="521" r="28" fill="#ffffff" opacity="0.082"/><circle cx="215" cy="257" r="20" fill="#ffffff" opacity="0.106"/><circle cx="927" cy="41" r="14" fill="#ffffff" opacity="0.052"/><circle cx="329" cy="542" r="17" fill="#ffffff" opacity="0.116"/><circle cx="765" cy="224" r="28" fill="#ffffff" opacity="0.073"/><circle cx="944" cy="995" r="26" fill="#ffffff" opacity="0.124"/><circle cx="492" cy="522" r="20" fill="#ffffff" opacity="0.125"/><circle cx="916" cy="391" r="19" fill="#ffffff" opacity="0.069"/><circle cx="802" cy="949" r="12" fill="#ffffff" opacity="0.049"/><circle cx="376" cy="102" r="28" fill="#ffffff" opacity="0.074"/><circle cx="306" cy="398" r="13" fill="#ffffff" opacity="0.062"/><circle cx="139" cy="623" r="14" fill="#ffffff" opacity="0.092"/><circle cx="700" cy="3" r="31" fill="#ffffff" opacity="0.131"/><circle cx="737" cy="965" r="26" fill="#ffffff" opacity="0.118"/><circle cx="756" cy="736" r="24" fill="#ffffff" opacity="0.121"/><circle cx="24" cy="943" r="23" fill="#ffffff" opacity="0.062"/><circle cx="767" cy="652" r="24" fill="#ffffff" opacity="0.103"/><circle cx="133" cy="930" r="7" fill="#ffffff" opacity="0.101"/>
  <rect width="1080" height="1080" fill="url(#v6)"/>
  <text x="540" y="496.8" font-size="216" text-anchor="middle" dominant-baseline="middle">💐</text>
  <text x="540" y="669.6" font-family="Georgia, serif" font-size="59" fill="#ffffff" fill-opacity="0.95" text-anchor="middle" font-style="italic">Haldi Morning</text>
  <text x="540" y="745.1999999999999" font-family="Helvetica, Arial, sans-serif" font-size="35" fill="#ffffff" fill-opacity="0.7" text-anchor="middle" letter-spacing="2">PEELI PEELI</text>
</svg>