<svg xmlns="http://www.w3.org/2000/svg" width="1080" height="1920" viewBox="0 0 1080 1920">
  <defs>
    <linearGradient id="g103" x1="0" y1="0" x2="1" y2="1">
      <stop offset="0" stop-color="#5e2750"/>
      <stop offset="1" stop-color="#c06c84"/>
    </linearGradient>
    <radialGradient id="v103" cx="0.5" cy="0.42" r="0.75">
      <stop offset="0.55" stop-color="#000000" stop-opacity="0"/>
      <stop offset="1" stop-color="#000000" stop-opacity="0.45"/>
    </radialGradient>
  </defs>
  <rect width="1080" height="1920" fill="url(#g103)"/>
  <circle cx="335" cy="1246" r="24" fill="#ffffff" opacity="0.060"/><circle cx="364" cy="1070" r="11" fill="#ffffff" opacity="0.098"/><circle cx="122" cy="1242" r="27" fill="#ffffff" opacity="0.118"/><circle cx="35" cy="743" r="31" fill="#ffffff" opacity="0.115"/><circle cx="851" cy="188" r="12" fill="#ffffff" opacity="0.081"/><circle cx="635" cy="1616" r="23" fill="#ffffff" opacity="0.125"/><circle cx="56" cy="1875" r="14" fill="#ffffff" opacity="0.066"/><circle cx="818" cy="728" r="29" fill="#ffffff" opacity="0.082"/><circle cx="509" cy="639" r="16" fill="#ffffff" opacity="0.041"/><circle cx="36" cy="164" r="16" fill="#ffffff" opacity="0.080"/><circle cx="985" cy="130" r="28" fill="#ffffff" opacity="0.069"/><circle cx="463" cy="1511" r="23" fill="#ffffff" opacity="0.130"/><circle cx="696" cy="727" r="29" fill="#ffffff" opacity="0.123"/><circle cx="992" cy="1595" r="26" fill="#ffffff" opacity="0.108"/><circle cx="137" cy="1672" r="8" fill="#ffffff" opacity="0.060"/><circle cx="597" cy="1006" r="18" fill="#ffffff" opacity="0.063"/><circle cx="479" cy="641" r="14" fill="#ffffff" opacity="0.065"/><circle cx="250" cy="481" r="15" fill="#ffffff" opacity="0.097"/>
  <rect width="1080" height="1920" fill="url(#v103)"/>
  <text x="540" y="883.2" font-size="216" text-anchor="middle" dominant-baseline="middle">👗</text>
  <text x="540" y="1190.4" font-family="Georgia, serif" font-size="59" fill="#ffffff" fill-opacity="0.95" text-anchor="middle" font-style="italic">Dress Code</text>
  <text x="540" y="1324.8" font-family="Helvetica, Arial, sans-serif" font-size="35" fill="#ffffff" fill-opacity="0.7" text-anchor="middle" letter-spacing="2">GLAM IT UP</text>
</svg>