<svg xmlns="http://www.w3.org/2000/svg" width="1080" height="1920" viewBox="0 0 1080 1920">
  <defs>
    <linearGradient id="g101" x1="0" y1="0" x2="1" y2="1">
      <stop offset="0" stop-color="#7a3b2e"/>
      <stop offset="1" stop-color="#e6a157"/>
    </linearGradient>
    <radialGradient id="v101" cx="0.5" cy="0.42" r="0.75">
      <stop offset="0.55" stop-color="#000000" stop-opacity="0"/>
      <stop offset="1" stop-color="#000000" stop-opacity="0.45"/>
    </radialGradient>
  </defs>
  <rect width="1080" height="1920" fill="url(#g101)"/>
  <circle cx="689" cy="111" r="13" fill="#ffffff" opacity="0.071"/><circle cx="227" cy="959" r="18" fill="#ffffff" opacity="0.137"/><circle cx="161" cy="921" r="26" fill="#ffffff" opacity="0.103"/><circle cx="876" cy="1895" r="15" fill="#ffffff" opacity="0.126"/><circle cx="81" cy="1439" r="7" fill="#ffffff" opacity="0.084"/><circle cx="241" cy="1521" r="19" fill="#ffffff" opacity="0.059"/><circle cx="543" cy="1262" r="8" fill="#ffffff" opacity="0.100"/><circle cx="375" cy="569" r="19" fill="#ffffff" opacity="0.138"/><circle cx="281" cy="1195" r="31" fill="#ffffff" opacity="0.079"/><circle cx="410" cy="1411" r="9" fill="#ffffff" opacity="0.059"/><circle cx="748" cy="1547" r="18" fill="#ffffff" opacity="0.066"/><circle cx="1002" cy="1226" r="28" fill="#ffffff" opacity="0.128"/><circle cx="117" cy="1702" r="8" fill="#ffffff" opacity="0.070"/><circle cx="842" cy="1815" r="22" fill="#ffffff" opacity="0.135"/><circle cx="962" cy="972" r="27" fill="#ffffff" opacity="0.073"/><circle cx="385" cy="1495" r="24" fill="#ffffff" opacity="0.099"/><circle cx="296" cy="731" r="22" fill="#ffffff" opacity="0.111"/><circle cx="883" cy="1713" r="19" fill="#ffffff" opacity="0.082"/>
  <rect width="1080" height="1920" fill="url(#v101)"/>
  <text x="540" y="883.2" font-size="216" text-anchor="middle" dominant-baseline="middle">⏳</text>
  <text x="540" y="1190.4" font-family="Georgia, serif" font-size="59" fill="#ffffff" fill-opacity="0.95" text-anchor="middle" font-style="italic">Countdown On</text>
  <text x="540" y="1324.8" font-family="Helvetica, Arial, sans-serif" font-size="35" fill="#ffffff" fill-opacity="0.7" text-anchor="middle" letter-spacing="2">GET READY</text>
</svg>